<svg width="105" height="51" viewBox="0 0 105 51" fill="none" xmlns="http://www.w3.org/2000/svg">
<path d="M64.1033 15.0239C63.7693 14.271 63.6923 13.6999 63.3583 13.4662C61.303 11.8567 59.376 10.2471 58.5025 7.59913C58.2713 6.87223 57.3464 6.37899 56.7812 5.75593C56.0875 5.00308 55.2397 4.30214 54.8029 3.41948C54.469 2.7445 54.3662 1.62819 54.7002 1.0311C55.0342 0.459964 56.1389 -0.111176 56.7812 0.0186271C59.2733 0.5638 61.8168 1.10898 64.1291 2.1474C68.9848 4.27617 73.635 6.84628 78.5164 8.94909C83.0639 10.9221 87.7911 12.4278 92.39 14.297C95.7042 15.6469 98.9156 17.2565 102.178 18.7882C102.795 19.0737 103.36 19.5151 103.848 19.9564C105.441 21.3842 105.39 23.5909 103.643 24.811C102.667 25.512 101.588 26.0312 100.509 26.5764C96.552 28.6013 92.5698 30.6262 88.5876 32.5732C83.1923 35.2212 78.0026 38.1807 73.2753 41.945C69.216 45.1641 64.7457 47.6823 60.0698 49.8371C59.299 50.2005 58.5282 50.564 57.7061 50.8236C55.4966 51.4985 53.9551 50.1745 54.212 47.916C54.2377 47.7342 54.2634 47.5525 54.3405 47.4227C55.3168 45.7353 53.801 43.5546 55.3682 41.9969C56.6014 40.8028 57.8603 39.6345 59.0935 38.4403C60.044 37.5317 60.9433 36.5712 62.3306 35.1693C61.0974 34.9616 60.4808 34.702 59.9156 34.7799C55.5223 35.4808 51.0776 35.8702 46.8128 37.0644C39.542 39.0634 32.1942 40.4653 24.6665 41.2441C19.0657 41.8152 13.5163 42.8796 7.91553 43.5806C6.27126 43.7882 4.5242 43.6584 2.85424 43.4248C1.51827 43.2171 0.721824 41.8152 1.44119 40.6989C2.31471 39.323 2.08349 38.1807 1.82657 36.8048C0.336447 29.1464 -0.126004 21.3842 0.0281467 13.596C0.105222 9.90964 1.77518 8.32603 5.42341 8.11834C6.60523 8.04046 7.81274 8.09238 9.02025 8.19622C24.5124 9.54617 40.0302 10.8182 55.3938 13.2585C58.1942 13.7518 60.9946 14.4008 64.1033 15.0239ZM5.32064 13.2845C5.32064 15.9325 5.26928 17.9834 5.34635 20.0083C5.42343 22.0852 5.70602 24.136 5.80879 26.2129C5.91155 28.4455 5.96294 30.7041 5.93725 32.9627C5.91155 34.9616 5.7574 36.9346 5.68033 39.1153C6.86215 39.0374 7.70997 39.1153 8.5321 38.9336C14.878 37.4019 21.3266 36.7269 27.7752 35.8443C32.8365 35.1433 38.0005 34.3386 42.8306 32.729C51.5915 29.7955 60.7634 30.1589 69.6528 28.6272C70.7061 28.4455 71.6824 28.8349 72.2733 29.8474C72.8899 30.8858 72.7101 31.9242 72.0164 32.729C70.4492 34.5462 68.7021 36.2337 67.1093 37.999C66.6468 38.5182 65.6449 38.8817 66.3129 40.2576C67.5461 39.5566 68.8049 39.0374 69.8326 38.2327C75.7417 33.6896 82.3188 30.4185 88.9986 27.2513C91.3109 26.135 93.6231 24.9927 95.884 23.7726C96.552 23.4091 97.0658 22.7601 97.9651 21.9554C95.6785 20.891 93.8543 19.9824 91.9532 19.1776C84.8622 16.2181 77.4117 14.0893 70.8089 9.96156C70.218 9.59811 69.6013 9.28657 68.9591 9.07889C68.1626 8.79332 67.3405 8.63756 65.9275 8.30007C68.1884 11.1557 70.0381 13.4143 71.7851 15.7508C72.3761 16.5555 72.9413 17.4901 73.1468 18.4766C73.635 20.6314 72.1962 21.9554 69.9354 21.54C69.4472 21.4621 68.9334 21.0986 68.4967 21.1765C65.8504 21.7996 63.4097 20.9429 60.9432 20.3198C59.2733 19.9045 57.6033 19.541 55.9334 19.2555C42.0855 16.8152 28.1092 15.595 14.1586 14.1153C11.4096 13.8556 8.68626 13.622 5.32064 13.2845Z" fill="#8A6A4E"/>
</svg>
