<svg width="105" height="51" viewBox="0 0 105 51" fill="none" xmlns="http://www.w3.org/2000/svg">
<path d="M40.8967 15.0239C41.2307 14.271 41.3077 13.6999 41.6417 13.4662C43.697 11.8567 45.624 10.2471 46.4975 7.59913C46.7287 6.87223 47.6536 6.37899 48.2188 5.75593C48.9125 5.00308 49.7603 4.30214 50.1971 3.41948C50.531 2.7445 50.6338 1.62819 50.2998 1.0311C49.9658 0.459964 48.8611 -0.111176 48.2188 0.0186271C45.7267 0.5638 43.1832 1.10898 40.8709 2.1474C36.0152 4.27617 31.365 6.84628 26.4836 8.94909C21.9361 10.9221 17.2089 12.4278 12.61 14.297C9.2958 15.6469 6.08437 17.2565 2.82152 18.7882C2.20492 19.0737 1.63969 19.5151 1.15156 19.9564C-0.44133 21.3842 -0.389938 23.5909 1.3571 24.811C2.33339 25.512 3.41243 26.0312 4.49148 26.5764C8.44801 28.6013 12.4302 30.6262 16.4124 32.5732C21.8077 35.2212 26.9974 38.1807 31.7247 41.945C35.784 45.1641 40.2543 47.6823 44.9302 49.8371C45.701 50.2005 46.4718 50.564 47.2939 50.8236C49.5034 51.4985 51.0449 50.1745 50.788 47.916C50.7623 47.7342 50.7366 47.5525 50.6595 47.4227C49.6832 45.7353 51.199 43.5546 49.6318 41.9969C48.3986 40.8028 47.1397 39.6345 45.9065 38.4403C44.956 37.5317 44.0567 36.5712 42.6694 35.1693C43.9026 34.9616 44.5192 34.702 45.0844 34.7799C49.4777 35.4808 53.9224 35.8702 58.1872 37.0644C65.458 39.0634 72.8058 40.4653 80.3335 41.2441C85.9343 41.8152 91.4837 42.8796 97.0845 43.5806C98.7287 43.7882 100.476 43.6584 102.146 43.4248C103.482 43.2171 104.278 41.8152 103.559 40.6989C102.685 39.323 102.917 38.1807 103.173 36.8048C104.664 29.1464 105.126 21.3842 104.972 13.596C104.895 9.90964 103.225 8.32603 99.5766 8.11834C98.3948 8.04046 97.1873 8.09238 95.9797 8.19622C80.4876 9.54617 64.9698 10.8182 49.6062 13.2585C46.8058 13.7518 44.0054 14.4008 40.8967 15.0239ZM99.6794 13.2845C99.6794 15.9325 99.7307 17.9834 99.6536 20.0083C99.5766 22.0852 99.294 24.136 99.1912 26.2129C99.0884 28.4455 99.0371 30.7041 99.0628 32.9627C99.0884 34.9616 99.2426 36.9346 99.3197 39.1153C98.1379 39.0374 97.29 39.1153 96.4679 38.9336C90.122 37.4019 83.6734 36.7269 77.2248 35.8443C72.1635 35.1433 66.9995 34.3386 62.1694 32.729C53.4085 29.7955 44.2366 30.1589 35.3472 28.6272C34.2939 28.4455 33.3176 28.8349 32.7267 29.8474C32.1101 30.8858 32.2899 31.9242 32.9836 32.729C34.5508 34.5462 36.2979 36.2337 37.8907 37.999C38.3532 38.5182 39.3551 38.8817 38.6871 40.2576C37.4539 39.5566 36.1951 39.0374 35.1674 38.2327C29.2583 33.6896 22.6812 30.4185 16.0014 27.2513C13.6891 26.135 11.3769 24.9927 9.11599 23.7726C8.44801 23.4091 7.93415 22.7601 7.03493 21.9554C9.3215 20.891 11.1457 19.9824 13.0468 19.1776C20.1378 16.2181 27.5883 14.0893 34.1911 9.96156C34.782 9.59811 35.3987 9.28657 36.0409 9.07889C36.8374 8.79332 37.6595 8.63756 39.0725 8.30007C36.8116 11.1557 34.9619 13.4143 33.2149 15.7508C32.6239 16.5555 32.0587 17.4901 31.8532 18.4766C31.365 20.6314 32.8038 21.9554 35.0646 21.54C35.5528 21.4621 36.0666 21.0986 36.5033 21.1765C39.1496 21.7996 41.5903 20.9429 44.0568 20.3198C45.7267 19.9045 47.3967 19.541 49.0666 19.2555C62.9145 16.8152 76.8908 15.595 90.8414 14.1153C93.5904 13.8556 96.3137 13.622 99.6794 13.2845Z" fill="#8A6A4E"/>
</svg>
