<svg width="83" height="91" viewBox="0 0 83 91" fill="none" xmlns="http://www.w3.org/2000/svg">
<g clip-path="url(#clip0_447_1564)">
<g style="mix-blend-mode:multiply">
<path d="M15.3452 18.6599C16.0752 25.9399 18.7752 33.2499 23.2152 39.1199C25.3252 41.9099 27.7852 44.3799 30.5952 46.4699C33.3052 48.4899 36.4752 50.5099 39.8052 51.2899C43.1252 52.0699 46.7652 51.9199 50.0052 50.8299C51.6152 50.2899 53.0152 49.5699 54.2652 48.4299C55.6252 47.1899 56.8752 45.8499 58.0252 44.4199C62.3052 39.0699 64.8152 32.6499 66.2252 26.0099C67.8052 18.5599 68.1252 10.9199 68.7552 3.34987H66.6852C66.6052 5.20987 66.5152 7.06987 66.4352 8.91987H68.5052C68.5852 7.05987 68.6752 5.19987 68.7552 3.34987H66.6852C67.0552 17.0899 64.1052 31.0399 57.0152 42.9499C56.2252 44.2799 55.3752 45.4299 54.0952 46.3499C52.9952 47.1299 51.7652 47.6999 50.4652 48.0899C47.6352 48.9399 44.6252 49.0099 41.6952 48.8599C40.2252 48.7799 38.6652 48.7399 37.2152 48.4499C35.6252 48.1399 34.0152 47.3399 32.6052 46.5599C30.0752 45.1699 27.8652 43.2899 26.0052 41.1099C24.1352 38.9199 22.1752 36.2299 21.4152 33.4399C21.2152 32.7199 21.0152 31.9999 20.6952 31.3199C20.3752 30.6399 19.7652 30.1099 19.5352 29.3999C18.9952 27.6599 18.7552 25.9599 17.8352 24.3599C17.1752 23.2199 15.3852 24.2499 16.0552 25.3899C16.9052 26.8699 17.1152 28.4999 17.6052 30.1099C17.8552 30.9299 18.4052 31.3499 18.7852 32.0899C19.1352 32.7599 19.2952 33.5199 19.4952 34.2399C20.2252 36.8599 21.9952 39.3299 23.6552 41.4599C25.5352 43.8699 27.7752 45.9799 30.3752 47.6199C31.7452 48.4899 33.2152 49.1999 34.7252 49.7799C36.3052 50.3899 37.8452 50.5899 39.5352 50.7499C45.3452 51.2799 52.1752 51.1799 56.6452 46.8999C57.8852 45.7099 58.6952 44.2199 59.5352 42.7399C60.4752 41.0799 61.3452 39.3699 62.1352 37.6399C63.6452 34.3299 64.8952 30.9099 65.8852 27.4099C68.0852 19.5999 68.9852 11.4499 68.7652 3.35987C68.7252 2.03987 66.7552 2.03987 66.6952 3.35987C66.6152 5.21987 66.5252 7.07987 66.4452 8.92987C66.3852 10.2499 68.4452 10.2399 68.5152 8.92987C68.6052 7.06987 68.6852 5.20987 68.7652 3.35987C68.8252 2.02987 66.8052 2.05987 66.6952 3.35987C65.6652 15.7499 65.5152 29.0899 58.6752 39.9799C56.9452 42.7299 54.7352 45.6899 52.0752 47.6199C49.5952 49.4199 45.9252 49.8599 42.9452 49.6899C39.5852 49.4899 36.7352 48.0399 33.9452 46.2799C31.1552 44.5199 28.6552 42.3499 26.4852 39.8799C24.0252 37.0699 22.0452 33.8599 20.5552 30.4499C18.9552 26.7799 17.8252 22.6299 17.4252 18.6499C17.2952 17.3499 15.2252 17.3399 15.3552 18.6499L15.3452 18.6599Z" fill="#8A6A4E"/>
</g>
<g style="mix-blend-mode:multiply">
<path d="M16.0351 0.850025C13.9551 0.490025 13.8351 3.29002 13.7751 4.66002C13.6851 6.75002 13.8251 8.85003 14.0051 10.93C14.0751 11.72 14.1551 12.52 14.2751 13.31C14.3551 13.86 15.0551 14.16 15.5451 14.03C16.1351 13.87 16.3451 13.32 16.2651 12.77C16.2251 12.51 16.2951 13.01 16.2651 12.77C16.2551 12.65 16.2351 12.52 16.2251 12.4C16.1851 12.07 16.1551 11.74 16.1251 11.4C16.0451 10.54 15.9751 9.67002 15.9251 8.81003C15.8651 7.83003 15.8251 6.84002 15.8251 5.86002C15.8251 5.41003 15.8251 4.97002 15.8551 4.52002C15.8651 4.33002 15.8751 4.13002 15.8951 3.94002C15.8951 3.85002 15.9151 3.76002 15.9251 3.67002C15.9251 3.59002 15.9751 3.35002 15.9351 3.56002C15.9651 3.37002 15.9951 3.19002 16.0451 3.01002C16.0651 2.94002 16.0851 2.86002 16.1051 2.79002C16.1151 2.74002 16.2151 2.53002 16.1351 2.70002C16.0551 2.87002 16.1451 2.67002 16.1751 2.64002C16.2951 2.54002 15.9951 2.83002 16.1351 2.70002C15.9751 2.85002 15.7751 2.89002 15.5051 2.85002C16.0551 2.95002 16.6151 2.70002 16.7751 2.13002C16.9151 1.64002 16.6051 0.970025 16.0551 0.870025L16.0351 0.850025Z" fill="#8A6A4E"/>
</g>
<g style="mix-blend-mode:multiply">
<path d="M14.5353 2.19005C31.5053 4.48005 48.6253 2.30005 65.6553 3.25005C65.5653 2.58005 65.4753 1.91005 65.3853 1.24005C64.3753 1.38005 63.3653 1.50005 62.3453 1.46005C62.4353 2.13005 62.5253 2.80005 62.6153 3.47005C63.6153 3.27005 64.6353 3.27005 65.6553 3.25005C66.9853 3.23005 66.9853 1.22005 65.6553 1.20005C48.5853 0.91005 31.5053 0.46005 14.4453 1.12005C13.1153 1.17005 13.1153 3.22005 14.4453 3.17005C31.5153 2.51005 48.5853 2.97005 65.6553 3.25005V1.21005C64.4453 1.23005 63.2552 1.27005 62.0653 1.51005C60.8853 1.74005 61.2153 3.48005 62.3353 3.52005C63.5452 3.56005 64.7353 3.39005 65.9253 3.22005C67.1353 3.05005 66.7453 1.27005 65.6553 1.21005C48.8153 0.27005 31.8553 2.49005 15.0853 0.22005C13.7853 0.0400503 13.2253 2.02005 14.5353 2.20005V2.19005Z" fill="#8A6A4E"/>
</g>
<g style="mix-blend-mode:multiply">
<path d="M65.0852 0.869988C64.7152 0.829988 64.2952 0.939988 64.0352 1.20999C63.7052 1.55999 63.6652 1.94999 63.7252 2.39999C63.7752 2.72999 64.1352 3.03999 64.4452 3.11999C64.6852 3.17999 64.9252 3.22999 65.1652 3.28999C65.2952 3.31999 65.4252 3.35999 65.5552 3.39999C65.6152 3.41999 65.6652 3.43999 65.7252 3.45999C65.9152 3.51999 65.6452 3.40999 65.7452 3.45999C65.7852 3.47999 65.8352 3.50999 65.8852 3.52999C65.9852 3.56999 65.7852 3.41999 65.8552 3.49999C65.9152 3.57999 66.0152 3.65999 66.0952 3.72999C66.3552 3.95999 66.6452 4.15999 66.9852 4.23999C67.4152 4.33999 67.9352 4.17999 68.1552 3.76999C68.4952 3.13999 68.5252 2.43999 68.0752 1.85999C67.7152 1.39999 67.1552 1.15999 66.6052 1.01999C65.4552 0.739988 64.2152 0.739988 63.0352 0.759988C62.5652 0.759988 62.0952 0.789988 61.6252 0.779988C61.0852 0.769988 60.5652 1.25999 60.5952 1.79999C60.6252 2.36999 61.0452 2.80999 61.6252 2.81999C62.4752 2.83999 63.3252 2.78999 64.1752 2.80999C64.4352 2.80999 64.6952 2.82999 64.9552 2.83999C65.0852 2.83999 65.2152 2.85999 65.3352 2.86999C65.3952 2.86999 65.4552 2.87999 65.5252 2.88999C65.7452 2.90999 65.3252 2.85999 65.4852 2.88999C65.7152 2.92999 65.9452 2.95999 66.1652 3.02999C66.2552 3.05999 66.3552 3.09999 66.4452 3.11999C66.5052 3.12999 66.1952 2.99999 66.3352 3.07999C66.3752 3.09999 66.4252 3.11999 66.4652 3.14999C66.5052 3.17999 66.6552 3.27999 66.4852 3.14999C66.3052 3.00999 66.4652 3.11999 66.4852 3.14999C66.5752 3.29999 66.3252 2.90999 66.4152 3.04999C66.5152 3.20999 66.3652 2.89999 66.3652 2.92999C66.4252 3.10999 66.3552 2.76999 66.3552 2.78999C66.3552 2.83999 66.3352 3.00999 66.3652 2.78999C66.3952 2.56999 66.3652 2.73999 66.3452 2.78999C66.3052 2.96999 66.4752 2.52999 66.3652 2.72999C66.7552 2.56999 67.1452 2.41999 67.5352 2.25999C67.4052 2.22999 67.5152 2.25999 67.5752 2.28999C67.3952 2.20999 67.6452 2.37999 67.5752 2.29999C67.5152 2.22999 67.4352 2.15999 67.3652 2.09999C67.1152 1.86999 66.8652 1.71999 66.5552 1.58999C66.0552 1.37999 65.5252 1.25999 64.9952 1.13999C65.2352 1.37999 65.4752 1.61999 65.7152 1.85999C65.9052 3.20999 64.4152 2.83999 65.0852 2.91999C65.6252 2.97999 66.1452 2.40999 66.1152 1.89999C66.0852 1.28999 65.6552 0.939988 65.0852 0.879988V0.869988Z" fill="#8A6A4E"/>
</g>
<g style="mix-blend-mode:multiply">
<path d="M15.2551 1.78996V1.53996H13.1951C13.0951 5.15996 13.4951 8.70996 14.0651 12.28C14.3351 13.94 14.4151 15.62 14.6751 17.28C14.9151 18.81 15.7251 20.15 15.7651 21.71C16.3551 21.47 16.9451 21.23 17.5251 20.99C17.2851 20.8 17.5251 19.55 17.5251 19.23C17.5651 18.36 17.5751 17.48 17.5251 16.61C17.4451 14.94 17.1651 13.28 17.0451 11.62C16.9551 10.26 16.8651 8.89996 16.8251 7.53996C16.7951 6.47996 16.7451 5.32996 16.0151 4.49996C15.4651 3.87996 14.5251 4.26996 14.2851 4.94996C13.7451 6.47996 13.9151 8.12996 13.9351 9.71996C13.9551 11.71 13.9051 13.7 13.9751 15.69C14.0451 17.6 13.9351 19.53 14.1051 21.43C14.1851 22.3 14.2951 23.2 14.6251 24.02C14.7551 24.36 14.9351 24.64 15.1451 24.93C15.2451 25.07 15.5851 25.58 15.5851 25.54C15.3851 26.83 17.3751 27.39 17.5751 26.08C17.6951 25.31 17.5351 24.76 17.0951 24.12C16.5751 23.36 16.3251 22.69 16.2051 21.77C15.9751 19.96 16.1251 18.1 16.0651 16.27C15.9951 14.27 15.9651 12.28 16.0051 10.28C16.0351 8.68996 15.7451 7.01996 16.2851 5.48996C15.7051 5.63996 15.1351 5.78996 14.5551 5.93996C15.0251 6.46996 14.7751 8.17997 14.8151 8.88997C14.9251 10.57 14.9951 12.26 15.1851 13.93C15.3751 15.57 15.5151 17.18 15.4651 18.84C15.4251 20.02 14.9651 21.56 16.0451 22.42C16.6951 22.94 17.8351 22.66 17.8051 21.7C17.7651 20.14 17.0751 18.92 16.7651 17.42C16.4251 15.81 16.3951 14.13 16.1451 12.51C15.5951 8.84997 15.1251 5.24996 15.2251 1.53996C15.2651 0.219964 13.2151 0.229965 13.1551 1.53996V1.78996C13.0851 3.10996 15.1551 3.09996 15.2151 1.78996H15.2551Z" fill="#8A6A4E"/>
</g>
<g style="mix-blend-mode:multiply">
<path d="M13.1451 2.79004C12.8951 10.38 13.9351 17.97 15.9151 25.28C16.7751 28.45 17.1951 31.85 19.0151 34.66C19.8651 35.97 20.9551 37.09 21.7651 38.42C22.6351 39.85 23.3951 41.32 24.4851 42.61C24.7051 42.87 25.1651 42.98 25.4951 42.87C25.7251 42.79 25.9551 42.73 26.1851 42.68C27.4851 42.39 26.9351 40.41 25.6351 40.7C25.3951 40.74 25.1651 40.8 24.9451 40.89C25.2851 40.98 25.6151 41.07 25.9551 41.15C24.9151 39.92 24.2351 38.44 23.3851 37.09C22.5551 35.78 21.4651 34.67 20.6451 33.36C18.9951 30.69 18.6251 27.35 17.8151 24.36C15.9151 17.35 14.9751 10.05 15.2151 2.78004C15.2551 1.46004 13.1951 1.46004 13.1451 2.78004V2.79004Z" fill="#8A6A4E"/>
</g>
<g style="mix-blend-mode:multiply">
<path d="M14.1751 3.81004C15.7951 3.62004 17.4651 3.12004 19.1051 3.36004C20.6851 3.59004 22.2051 3.84004 23.8051 3.88004C27.3251 3.96004 30.8451 3.95004 34.3651 4.05004C38.0951 4.16004 41.8351 4.21004 45.5651 4.39004C47.1851 4.47004 48.7451 4.11004 50.3551 4.17004C52.1151 4.24004 53.8751 4.40004 55.6451 4.34004C59.4351 4.20004 63.1851 3.55004 66.9751 3.64004C68.3051 3.67004 68.3051 1.62004 66.9751 1.59004C65.1851 1.55004 63.4051 1.63004 61.6251 1.83004C60.0551 2.01004 58.4751 2.02004 56.9051 2.19004C55.2251 2.37004 53.5451 2.29004 51.8551 2.20004C50.9951 2.16004 50.1251 2.07004 49.2651 2.13004C48.4651 2.18004 47.6851 2.36004 46.8851 2.38004C45.1151 2.43004 43.3151 2.26004 41.5351 2.21004C39.6151 2.16004 37.6951 2.10004 35.7851 2.05004C32.2151 1.95004 28.6451 1.86004 25.0651 1.85004C23.2151 1.85004 21.4551 1.70004 19.6351 1.39004C17.7651 1.08004 16.0051 1.55004 14.1551 1.77004C12.8551 1.92004 12.8351 3.97004 14.1551 3.82004L14.1751 3.81004Z" fill="#8A6A4E"/>
</g>
<g style="mix-blend-mode:multiply">
<path d="M14.1751 1.04C14.0451 1.15 12.7851 0.599995 12.4551 0.549995C11.6951 0.429995 10.9151 0.489995 10.1451 0.469995C8.67514 0.429995 7.12514 0.369995 5.70514 0.829995C4.17514 1.33 3.31514 2.4 2.43514 3.67C2.02514 4.26 1.60514 4.79999 1.35514 5.47C1.05514 6.25999 0.925138 7.13 0.775138 7.96C0.495138 9.51 0.645138 11.14 1.35514 12.56C2.07514 14 3.47514 14.82 4.88514 15.51C7.82514 16.97 11.6351 18.05 12.8351 21.42C13.0351 21.99 13.3851 22.63 12.9451 23.12C12.5351 23.58 11.8351 23.86 11.2851 24.11C10.7251 24.36 10.1351 24.56 9.55514 24.77C9.22514 24.89 8.84514 25.08 8.49514 25.11C8.14514 25.14 7.22514 24.83 7.19514 24.37C7.11514 23.07 5.12514 23.04 5.12514 24.37C5.12514 25.6 5.24514 26.76 6.42514 27.44C7.78514 28.23 9.81514 28.33 11.3351 28.04C12.7451 27.77 14.1851 26.64 15.0351 25.51C15.9951 24.24 16.3051 22.42 15.8351 20.89C15.4051 19.46 13.8951 18.74 12.6651 18.09C11.0051 17.22 9.27514 16.49 7.61514 15.62C6.39514 14.98 4.89514 14.26 4.04514 13.14C3.56514 12.5 3.71514 11.66 3.75514 10.92C3.81514 9.92 3.64514 8.9 3.75514 7.9C3.86514 6.88 4.44514 6.04999 5.28514 5.45C6.13514 4.83999 7.26514 4.76 8.26514 4.5C10.1551 4.01 12.1251 4.5 13.9951 4.03C14.7151 3.85 15.0451 2.82 14.4551 2.32C12.0551 0.309995 8.03514 0.779995 5.37514 1.98C2.51514 3.26 1.28514 6.55 1.81514 9.47C2.11514 11.11 2.91514 12.75 3.80514 14.16C4.70514 15.58 6.21514 16.28 7.69514 16.96C9.35514 17.72 11.0751 18.53 12.5051 19.68C13.1651 20.21 13.8151 20.85 14.2951 21.55C14.8151 22.3 14.6251 22.79 14.1851 23.54C13.2451 25.11 11.4151 25.41 9.69514 25.48C9.10514 25.5 8.35514 25.62 7.98514 25.09C7.70514 24.69 7.11514 23.43 7.21514 22.94C6.63514 23.09 6.06514 23.24 5.48514 23.39L5.53514 23.49C6.17514 23.32 6.81514 23.15 7.46514 22.97C7.27514 22.56 7.15514 22.16 7.13514 21.7C7.08514 20.38 5.11514 20.38 5.06514 21.7C4.99514 23.92 7.10514 27.12 9.59514 26.85C10.8851 26.71 10.9551 24.8 9.59514 24.8C8.96514 24.8 7.83514 25.1 7.43514 24.47C7.17514 24.05 7.32514 23.48 7.31514 23.02C7.30514 22.46 7.18514 22.02 6.93514 21.52C6.60514 20.87 5.47514 20.84 5.15514 21.52C4.62514 22.64 4.24514 23.86 4.39514 25.11C4.54514 26.38 6.48514 26.46 6.46514 25.11C6.45514 24.43 6.46514 23.74 6.40514 23.06C6.30514 21.76 4.32514 21.73 4.33514 23.06C4.34514 23.91 4.59514 24.62 4.88514 25.41C5.09514 26 5.80514 26.41 6.40514 26.02C6.73514 25.8 7.03514 25.57 7.30514 25.28C8.20514 24.31 6.74514 22.86 5.84514 23.83C5.71514 24 5.55514 24.14 5.36514 24.25C5.87514 24.45 6.37514 24.66 6.88514 24.86C6.67514 24.26 6.42514 23.7 6.41514 23.05H4.32514C4.37514 23.73 4.36514 24.42 4.38514 25.1H6.45514C6.34514 24.2 6.55514 23.36 6.93514 22.55H5.15514C5.45514 23.15 5.16514 24.01 5.31514 24.67C5.45514 25.29 5.84514 25.87 6.33514 26.27C7.28514 27.04 8.46514 26.85 9.59514 26.85V24.8C8.23514 24.95 7.09514 22.88 7.12514 21.7H5.05514C5.08514 22.53 5.31514 23.25 5.66514 24C6.10514 24.94 7.60514 24.45 7.59514 23.48C7.58514 22.85 7.39514 22.37 6.93514 21.93C6.40514 21.42 5.36514 21.6 5.20514 22.38C5.06514 23.08 5.19514 23.71 5.45514 24.37C5.71514 25.03 5.93514 25.79 6.35514 26.37C7.22514 27.57 8.75514 27.58 10.1151 27.49C11.6751 27.38 13.3551 27.09 14.6251 26.12C15.6751 25.32 16.6951 23.76 16.7351 22.41C16.7751 20.82 15.2151 19.28 14.0851 18.33C12.6651 17.14 11.0351 16.26 9.36514 15.47C7.69514 14.69 6.09514 14.13 5.20514 12.43C4.33514 10.77 3.38514 8.92 3.81514 6.99C4.22514 5.12999 5.57514 3.98 7.34514 3.49C8.37514 3.2 9.37514 2.89 10.4551 3.02C11.2551 3.12 12.3551 3.25 12.9951 3.79C13.1451 3.22 13.2951 2.65 13.4551 2.08C12.7651 2.25 12.0351 2.16 11.3351 2.15C10.5051 2.15 9.66514 2.18 8.84514 2.31C7.38514 2.53 5.50514 2.83 4.27514 3.68C3.01514 4.55 2.03514 5.79 1.77514 7.32C1.63514 8.16 1.71514 8.99 1.73514 9.83C1.75514 10.63 1.62514 11.44 1.66514 12.24C1.81514 15.02 4.80514 16.5 7.01514 17.62C8.59514 18.43 10.2451 19.12 11.8151 19.96C12.4051 20.27 13.2351 20.61 13.6751 21.13C14.0651 21.61 14.0251 22.4 13.9551 22.97C13.7551 24.53 11.9851 26 10.4251 26.09C9.56514 26.14 8.57514 26.14 7.76514 25.8C7.08514 25.51 7.22514 25.03 7.21514 24.37H5.14514C5.24514 25.94 6.93514 27.26 8.49514 27.17C9.78514 27.09 11.2851 26.37 12.4451 25.83C13.5251 25.33 14.8351 24.59 15.1751 23.36C15.5651 21.98 14.6351 20.05 13.9051 18.92C11.8251 15.69 7.62514 14.94 4.54514 13C2.94514 11.98 2.47514 10.15 2.80514 8.35C2.96514 7.47 3.07514 6.45 3.53514 5.67C3.94514 4.96 4.50514 4.17 5.06514 3.57C6.37514 2.17 8.70514 2.47 10.4451 2.52C11.4351 2.54 12.2151 2.56 13.1651 2.89C14.1251 3.23 14.8551 3.15 15.6351 2.48C16.6451 1.62 15.1751 0.169995 14.1751 1.03V1.04Z" fill="#8A6A4E"/>
</g>
<g style="mix-blend-mode:multiply">
<path d="M64.7851 4.33999C66.6151 3.49 68.4951 2.28999 70.5351 2.06999C72.6351 1.84999 74.7251 2.47999 76.5551 3.47999C78.0551 4.29999 79.7751 5.58999 80.1751 7.31999C80.3751 8.17 80.3151 9.06999 80.0951 9.90999C79.8251 10.97 79.1851 11.66 78.6651 12.6C77.6151 14.49 76.1851 15.54 74.0651 16.01C73.0851 16.23 72.2151 16.79 71.2251 16.98C70.4051 17.14 69.5651 17.1 68.7751 17.38C67.2551 17.91 66.6151 19.59 66.4051 21.06C66.1851 22.65 67.1851 23.75 68.5651 24.39C71.5051 25.77 76.0251 25.27 77.5251 22.02C76.8851 21.85 76.2451 21.68 75.5951 21.5C75.5951 22.69 73.9351 23.26 72.9451 23.37C72.2551 23.45 71.6051 23.51 70.9751 23.21C70.6451 23.05 70.3251 22.9 69.9651 22.82C69.6251 22.75 69.1251 22.82 68.8351 22.64C68.4351 22.4 68.4951 21.91 68.4151 21.52C68.3851 21.36 68.0851 20.85 68.1051 20.71C68.1751 20.23 69.3051 19.78 69.7051 19.64C71.4251 19.06 73.2351 18.91 74.9051 18.16C77.2151 17.13 80.2251 15.59 80.8351 12.91C81.4951 9.99999 79.9051 6.66 77.8351 4.64999C76.5351 3.38999 74.8451 2.42999 73.0751 1.98999C72.1551 1.75999 71.1851 1.60999 70.2451 1.51999C69.2251 1.41999 68.1851 1.57999 67.1751 1.37999C67.2551 1.99999 67.3351 2.62999 67.4251 3.24999C69.3551 2.25999 72.0351 2.39999 74.0451 3.05999C74.8351 3.31999 75.5851 3.76999 76.3051 4.17999C76.6451 4.36999 78.0951 5.06999 78.0951 5.52999L79.6451 4.64999C79.0751 4.29999 78.2551 3.99999 77.9651 3.36999C77.4951 3.83999 77.0251 4.29999 76.5551 4.76999C77.4851 5.28999 77.6951 6.32999 78.0751 7.23999C78.5751 8.43999 80.5751 7.91999 80.0651 6.69999C79.4651 5.24999 79.0551 3.81999 77.5951 2.99999C76.6351 2.45999 75.7751 3.50999 76.1851 4.39999C76.6351 5.37999 77.7351 5.87999 78.6051 6.41999C79.2751 6.82999 80.1551 6.29999 80.1551 5.53999C80.1551 4.33999 79.0951 3.53999 78.1851 2.92999C77.2251 2.28999 76.1451 1.67999 75.0751 1.25999C72.4351 0.229995 68.9251 0.169995 66.3751 1.48999C65.6051 1.87999 65.7551 3.17999 66.6251 3.35999C67.4951 3.53999 68.3451 3.52999 69.2251 3.53999C70.2751 3.53999 71.3251 3.69999 72.3451 3.93999C74.1351 4.34999 75.8651 5.36999 77.0151 6.80999C78.0051 8.05999 78.9051 9.76999 78.9151 11.39C78.9351 13.12 77.9051 14.15 76.4951 15.03C74.9751 15.97 73.3951 16.66 71.6551 17.07C70.0351 17.45 68.4351 17.71 67.1351 18.8C66.6451 19.21 66.1951 19.71 66.0951 20.37C65.9851 21.12 66.3651 21.99 66.5251 22.72C66.6951 23.5 67.1651 24.15 67.9051 24.49C68.6351 24.82 69.4251 24.77 70.1451 25.11C72.7351 26.35 77.6451 24.82 77.6551 21.51C77.6551 20.55 76.1751 20.04 75.7251 20.99C75.1051 22.33 73.7051 22.95 72.2751 23.08C71.5751 23.14 70.8651 23.08 70.1951 22.86C69.6651 22.69 68.6651 22.36 68.4451 21.78C68.2451 21.25 68.6751 20.18 68.9451 19.75C69.3751 19.06 70.3651 19.14 71.0951 19.05C71.9851 18.94 72.7151 18.63 73.5451 18.3C74.5251 17.91 75.5751 17.85 76.5351 17.4C78.1851 16.63 79.4751 15.35 80.3451 13.78C80.7951 12.97 81.3951 12.3 81.7351 11.43C82.0851 10.56 82.2851 9.61999 82.3251 8.68999C82.4851 5.00999 79.4651 2.44999 76.3051 1.10999C74.2451 0.229995 72.1151 -0.220005 69.8751 0.109995C67.6751 0.429995 65.6951 1.64999 63.7151 2.57999C62.5151 3.13999 63.5551 4.90999 64.7551 4.34999L64.7851 4.33999Z" fill="#8A6A4E"/>
</g>
<g style="mix-blend-mode:multiply">
<path d="M67.6952 17.85C66.0752 17.88 65.5852 19.48 65.5052 20.82C65.4452 21.94 65.5152 23.31 66.0352 24.33C66.8252 25.91 68.8152 27.29 70.5652 27.5C72.5252 27.74 74.3652 27.35 76.0852 26.44C77.7252 25.58 79.8352 24.18 79.5952 22.06C78.9152 22.15 78.2452 22.24 77.5652 22.33C77.5652 22.27 77.5052 22.43 77.5652 22.36C77.4352 22.56 77.5052 22.51 77.2952 22.69C77.1152 22.84 76.6852 23.06 76.3852 23.17C75.9752 23.32 75.5552 23.44 75.1252 23.53C74.9352 23.57 74.7452 23.61 74.5452 23.64C74.5352 23.64 74.1952 23.68 74.4152 23.66C74.3552 23.66 74.2952 23.67 74.2352 23.67C73.4152 23.69 72.5852 23.62 71.7652 23.66C70.9252 23.7 69.8452 23.79 69.3752 24.6C69.2052 24.9 69.1652 25.33 69.3752 25.63C69.5852 25.94 69.8252 26.23 70.0952 26.48C70.3352 25.9 70.5852 25.31 70.8252 24.73C70.5852 24.73 70.4952 24.71 70.2852 24.59C69.1452 23.9 68.1052 25.67 69.2452 26.36C69.7352 26.66 70.2552 26.8 70.8252 26.78C71.6852 26.76 72.2252 25.66 71.5552 25.03C71.4052 24.89 71.2752 24.76 71.1552 24.59V25.62C71.1152 25.68 71.0652 25.73 71.0052 25.77C70.9352 25.82 70.9352 25.82 71.0152 25.77C71.0152 25.81 70.8552 25.81 71.1052 25.77C71.3152 25.73 71.2752 25.73 71.4952 25.72C71.9752 25.69 72.4652 25.69 72.9452 25.7C73.8052 25.72 74.6152 25.7 75.4652 25.53C77.4052 25.14 79.8852 24.14 79.5452 21.78C79.3852 20.65 77.3852 20.9 77.5152 22.05C77.6452 23.17 76.4052 23.89 75.4952 24.41C74.9652 24.71 74.4052 25.04 73.8252 25.22C73.0852 25.44 72.3152 25.52 71.5452 25.51C70.1752 25.49 69.0152 24.84 68.1352 23.79C68.0552 23.7 67.9852 23.6 67.9252 23.5C67.8452 23.36 67.7852 23.19 67.8752 23.45C67.8252 23.3 67.7752 23.15 67.7452 22.99C67.6252 22.47 67.6052 22.31 67.5752 21.79C67.5552 21.5 67.5552 21.21 67.5652 20.93C67.5652 20.8 67.5752 20.67 67.5952 20.54C67.5952 20.54 67.6052 20.43 67.6452 20.29C67.6752 20.18 67.6952 20.07 67.7352 19.96C67.7452 19.92 67.8052 19.77 67.7352 19.96C67.7452 19.92 67.7852 19.84 67.8152 19.82C67.7452 19.88 67.7852 19.89 67.7752 19.87C67.7052 19.75 68.1052 19.87 67.7752 19.87C67.6852 19.87 67.6252 19.9 67.7052 19.9C69.0352 19.88 69.0352 17.83 67.7052 17.85H67.6952Z" fill="#8A6A4E"/>
</g>
<g style="mix-blend-mode:multiply">
<path d="M44.2651 50.95C44.2551 51.3 44.0651 51.63 43.9951 51.97C43.8951 52.5 43.8851 53.04 43.9051 53.58C43.9551 54.85 44.0051 56.11 44.0351 57.38C44.0951 59.9 44.1451 62.42 44.1951 64.94C44.2451 67.31 44.3751 69.68 44.4051 72.05C44.4151 73.2 44.1351 74.25 44.0351 75.38C43.9351 76.51 44.0751 77.66 44.1151 78.79H46.1851C46.1451 77.78 46.3451 76.8 46.4451 75.8C46.5651 74.6 46.4651 73.39 46.4251 72.19C46.3451 69.89 46.3151 67.59 46.2651 65.3C46.2151 62.97 46.1651 60.64 46.1151 58.3C46.0751 56.78 46.2151 55.16 45.9651 53.65C45.7551 52.41 44.9851 51.26 43.6251 51.14C41.8051 50.97 41.8851 53.51 42.0051 54.7C42.2151 56.79 42.1451 58.93 42.1951 61.03C42.2451 63.27 42.2951 65.52 42.3451 67.76C42.4551 72.85 42.9051 77.99 42.6751 83.07C42.6251 84.22 44.4451 84.47 44.7051 83.34C45.9151 78.07 46.0651 72.67 45.9451 67.28C45.9151 65.96 43.8651 65.96 43.8751 67.28C43.8951 69.97 43.7651 72.67 43.7251 75.36C43.7051 76.6 43.7251 77.84 43.8051 79.08C43.8651 80.18 43.4551 81.2 43.4451 82.31H45.5151C45.4951 81.46 45.4751 80.62 45.4551 79.77C45.4251 78.45 43.3751 78.45 43.3851 79.77C43.3851 80.38 43.3551 81 43.4151 81.61C43.4451 81.95 43.5751 82.25 43.4251 82.45C43.2351 82.7 42.5551 82.77 42.2551 82.84C41.7751 82.95 41.2951 83.04 40.8151 83.15C38.7251 83.66 36.7651 84.68 34.6851 85.25C32.4251 85.87 30.1651 86.12 27.8451 86.36C26.8551 86.46 25.8751 86.63 24.8951 86.8C24.1551 86.93 23.2951 87.09 22.7751 87.69C22.3151 88.22 22.4051 89.26 23.2351 89.4C25.0851 89.73 26.9551 89.78 28.8351 89.79C30.7951 89.81 32.7551 89.93 34.7151 89.99C38.6951 90.1 42.6851 89.92 46.6751 89.83C50.6051 89.74 54.5351 89.84 58.4651 89.67C59.6051 89.62 62.3351 89.86 62.7851 88.44C62.9251 87.99 62.6851 87.53 62.3151 87.28C59.9151 85.66 57.0251 85.09 54.2251 84.53C52.7751 84.24 51.3851 83.93 50.0451 83.3C48.7351 82.69 47.5151 81.92 46.3151 81.14C45.3451 80.51 44.1751 81.98 45.0651 82.75C46.1351 83.67 47.4551 84.08 48.8051 84.4C50.4251 84.78 51.9851 85.18 53.5551 85.73C55.3451 86.35 57.1651 86.88 58.9551 87.5C59.5651 87.71 60.1351 88.03 60.7251 88.3C61.0551 88.45 61.9151 88.69 62.1151 88.99V87.96C62.2851 87.64 62.2751 87.9 61.9251 87.88C61.6751 87.87 61.4151 87.91 61.1651 87.92C60.6751 87.93 60.1951 87.92 59.7051 87.92C58.2251 87.92 56.7451 88.24 55.2551 88.29C53.2951 88.36 51.3351 88.39 49.3851 88.32C48.3951 88.28 47.4051 88.23 46.4251 88.19C45.4851 88.16 44.5851 87.98 43.6551 87.91C42.7351 87.84 41.8251 87.95 40.9051 87.91C39.9251 87.87 38.9451 87.76 37.9551 87.72C35.9451 87.64 33.9251 87.76 31.9251 87.8C30.2251 87.84 28.5251 87.82 26.8251 87.93C26.3351 87.96 24.3251 88.32 24.1051 87.84C24.0551 88.25 23.9951 88.67 23.9451 89.08C25.1451 88.15 26.8351 87.82 28.2851 87.51C30.0551 87.14 31.8651 86.97 33.6251 86.59C34.5551 86.39 35.4051 86.04 36.2551 85.62C37.1951 85.16 38.1951 84.81 39.1751 84.43C40.0951 84.08 41.0251 83.81 41.9551 83.48C42.8951 83.14 43.7651 82.7 44.7651 82.54C46.0751 82.32 45.5151 80.35 44.2151 80.56C43.2151 80.73 42.3451 81.16 41.4051 81.5C40.4251 81.85 39.4251 82.14 38.4551 82.52C36.4451 83.3 34.4751 84.39 32.3451 84.74C29.0551 85.27 25.2151 85.51 22.4951 87.62C22.1151 87.91 22.1551 88.48 22.3351 88.86C23.1751 90.62 25.9951 89.98 27.5251 89.93C30.9851 89.83 34.5151 89.6 37.9751 89.75C39.6251 89.82 41.2351 89.92 42.8851 89.91C43.7051 89.91 44.4851 90.07 45.2951 90.15C46.1951 90.24 47.1151 90.24 48.0151 90.28C51.4151 90.43 54.9151 90.53 58.3051 90.09C59.3151 89.96 60.2751 89.98 61.2951 89.95C62.1851 89.92 63.4451 89.87 63.9151 88.98C64.0851 88.67 64.1251 88.25 63.9151 87.95C63.2751 87 62.0351 86.68 61.0551 86.2C59.4351 85.4 57.6651 85 55.9551 84.41C54.2551 83.82 52.5651 83.15 50.8051 82.75C49.4151 82.44 47.6551 82.28 46.5351 81.32C46.1151 81.86 45.7051 82.39 45.2851 82.93C47.6651 84.48 50.1251 85.84 52.9551 86.39C55.8151 86.94 58.8451 87.43 61.2951 89.08C61.1351 88.69 60.9751 88.31 60.8251 87.92C60.8251 87.89 61.2451 87.32 61.2851 87.38C61.2451 87.32 61.4251 87.43 61.2651 87.38C61.2151 87.37 61.0751 87.43 61.0151 87.44C60.7451 87.49 60.5751 87.51 60.2451 87.54C59.4351 87.61 58.6151 87.65 57.8051 87.68C55.8551 87.75 53.9151 87.76 51.9651 87.76C46.6351 87.76 41.2951 88.07 35.9651 88C33.9851 87.97 32.0151 87.82 30.0451 87.79C27.9751 87.76 25.8851 87.82 23.8351 87.46C23.9851 88.03 24.1351 88.6 24.2951 89.17C24.6751 88.73 25.9051 88.74 26.4751 88.64C27.8251 88.41 29.1951 88.35 30.5551 88.19C33.0151 87.9 35.4251 87.3 37.7651 86.49C38.8151 86.13 39.8251 85.63 40.8851 85.3C41.8051 85.01 42.7751 84.93 43.6751 84.61C44.4951 84.33 45.3951 83.86 45.6151 82.96C45.7151 82.55 45.6051 82.18 45.5451 81.77C45.4551 81.12 45.4951 80.45 45.4851 79.8H43.4151C43.4351 80.65 43.4551 81.49 43.4751 82.34C43.5051 83.66 45.5351 83.66 45.5451 82.34C45.5451 81.3 45.9551 80.34 45.9151 79.28C45.8651 77.98 45.8051 76.7 45.8251 75.39C45.8651 72.7 45.9951 70.01 45.9751 67.31H43.9051C44.0151 72.51 43.9051 77.73 42.7351 82.82C43.4151 82.91 44.0851 83 44.7651 83.09C45.0051 77.81 44.5451 72.47 44.4251 67.18C44.3651 64.54 44.3051 61.9 44.2451 59.26C44.2151 57.97 44.2351 56.67 44.1551 55.39C44.1151 54.75 43.7151 53.42 44.1351 52.88L43.4051 53.18C44.3651 53.31 44.0251 55.96 44.0351 56.59C44.0851 59.09 44.1551 61.6 44.2051 64.1C44.2551 66.6 44.3051 69.1 44.3751 71.6C44.4051 72.8 44.5151 74.01 44.4551 75.22C44.3951 76.43 44.1051 77.6 44.1551 78.81C44.2051 80.12 46.2651 80.13 46.2251 78.81C46.1851 77.74 46.0451 76.64 46.1351 75.57C46.2251 74.45 46.5251 73.41 46.5151 72.26C46.5051 69.83 46.3551 67.39 46.3051 64.96C46.2551 62.51 46.2051 60.05 46.1451 57.6C46.1151 56.33 46.0851 55.06 46.0251 53.79C45.9951 53.23 45.9651 52.66 46.1251 52.12C46.2451 51.72 46.3551 51.39 46.3751 50.96C46.4251 49.64 44.3651 49.64 44.3051 50.96L44.2651 50.95Z" fill="#8A6A4E"/>
</g>
<g style="mix-blend-mode:multiply">
<path d="M44.1251 77.1601C44.2651 78.0101 44.4751 78.8501 44.6551 79.7001C44.7451 80.1001 44.8151 80.5001 44.8851 80.9101C44.9051 81.0301 44.9051 81.0401 44.8851 80.9201C44.8851 80.9701 44.8951 81.0101 44.9051 81.0601C44.9151 81.1701 44.9251 81.2801 44.9351 81.3901C44.9551 81.6201 44.9651 81.8501 44.9751 82.0701C44.9851 82.6101 45.4451 83.1201 46.0051 83.0901C46.5551 83.0701 47.0551 82.6401 47.0351 82.0701V81.8501C47.0151 81.3101 46.5651 80.8001 45.9951 80.8301C45.4451 80.8501 44.9451 81.2801 44.9651 81.8501V82.0701H47.0351C46.9851 80.2101 46.4151 78.4301 46.1151 76.6101C46.0251 76.0801 45.3351 75.7401 44.8451 75.8901C44.2651 76.0801 44.0251 76.5801 44.1251 77.1501V77.1601Z" fill="#8A6A4E"/>
</g>
</g>
<defs>
<clipPath id="clip0_447_1564">
<rect width="81.71" height="90.42" fill="white" transform="translate(0.64502)"/>
</clipPath>
</defs>
</svg>
