<svg width="119" height="98" viewBox="0 0 119 98" fill="none" xmlns="http://www.w3.org/2000/svg">
<g clip-path="url(#clip0_449_541)">
<g style="mix-blend-mode:multiply">
<path d="M99.425 40.97C99.245 39.96 99.075 38.9999 98.865 38.0999C98.595 36.9399 98.255 35.7699 97.905 34.5299C97.345 32.5599 96.755 30.5199 96.465 28.5499V28.37C96.485 28.11 96.385 27.8 96.185 27.6C96.025 27.42 95.815 27.33 95.585 27.33C95.545 27.33 95.495 27.33 95.445 27.33L95.225 27.36L95.025 27.27C94.925 27.23 94.825 27.2 94.715 27.2C94.645 27.2 94.565 27.1999 94.485 27.2299C91.645 27.8999 88.785 28.66 86.015 29.41C82.065 30.47 77.985 31.5699 73.865 32.3899C73.575 32.4499 73.415 32.6 73.355 32.86C73.275 33.22 73.435 33.6399 73.725 33.8499L73.825 33.9199L73.895 34.0099C73.895 34.0099 73.925 34.05 73.935 34.07C73.975 34.12 74.015 34.17 74.055 34.22C74.245 34.47 74.495 34.59 74.805 34.59C74.995 34.59 75.205 34.5399 75.375 34.4399L75.495 34.38L75.625 34.36C75.945 34.31 76.275 34.26 76.595 34.2C79.295 33.77 81.855 33.3499 84.395 32.4799C85.155 32.2199 85.925 31.98 86.665 31.76C87.085 31.63 87.525 31.5 87.945 31.36C88.295 31.25 88.665 31.1499 89.015 31.0599C89.475 30.9399 89.915 30.82 90.315 30.68C90.565 30.59 90.825 30.54 91.105 30.53H91.215L91.275 30.3899C91.275 30.3899 91.375 30.42 91.435 30.44L91.695 30.51L92.765 30.4699L92.405 30.91L91.825 31.6299L91.805 31.65L91.445 32.0999C88.985 35.1599 86.585 38.29 84.135 41.49V41.5099C82.335 43.6699 80.765 45.5999 79.315 47.4199C78.775 48.0999 78.195 48.86 77.505 49.82L77.485 49.8499L77.465 49.8699C76.805 50.6299 76.135 51.41 75.485 52.16C73.145 54.86 70.725 57.64 68.605 60.54L68.125 61.2L67.485 60.68C66.635 59.9799 65.555 58.74 64.695 57.74C64.335 57.33 64.035 56.97 63.795 56.72C63.495 56.4 63.195 56.07 62.895 55.75C61.935 54.7099 60.945 53.6399 59.925 52.6199C59.305 51.9999 58.645 51.4 58.005 50.82C56.905 49.82 55.775 48.79 54.775 47.61C54.385 47.14 53.975 46.6599 53.595 46.1899C52.395 44.7299 51.155 43.22 49.815 41.97C49.715 41.87 49.605 41.81 49.485 41.77L49.365 41.7299L49.265 41.65C49.065 41.5 48.835 41.4199 48.605 41.4199C48.405 41.4199 48.215 41.4899 48.035 41.6199C47.575 41.9699 47.205 42.62 46.835 43.24C46.745 43.4 46.645 43.57 46.545 43.7299L46.505 43.79L46.455 43.84C45.665 44.7199 44.935 45.76 44.265 46.74V46.7599L44.235 46.7799C43.645 47.5499 42.865 48.5599 42.115 49.5999C41.815 50.0199 41.515 50.4499 41.215 50.8699L40.985 51.1899L40.965 51.2099L40.945 51.2299C38.795 53.8499 36.965 56.5 34.965 59.45L34.945 59.47L34.925 59.49L34.905 59.52C34.905 59.52 34.865 59.57 34.855 59.59C32.705 62.2599 30.225 65.3699 28.095 68.6299C27.945 68.8499 27.795 69.07 27.645 69.29L27.545 69.43V69.4499L27.515 69.47C26.905 70.2299 26.285 70.9899 25.685 71.7399C23.725 74.16 21.705 76.67 19.825 79.19C19.665 79.41 19.685 79.56 19.725 79.68C19.835 79.97 20.205 80.2499 20.575 80.3399L20.815 80.4L20.975 80.5899C21.095 80.7299 21.255 80.83 21.405 80.86L21.645 80.91L21.815 81.0899C21.955 81.2399 22.135 81.37 22.315 81.44L22.355 81.4599H22.385C22.495 81.52 22.595 81.54 22.685 81.54C23.015 81.54 23.145 81.1699 23.185 81.0599L23.215 80.9499L23.275 80.86C24.345 79.2799 25.425 77.67 26.465 76.11C29.445 71.66 32.515 67.06 35.775 62.6399C38.125 59.45 40.705 56.34 43.135 53.45C44.285 52.09 45.505 50.6299 46.685 49.16C46.895 48.9 47.135 48.56 47.385 48.2C47.725 47.71 48.105 47.1599 48.505 46.6899L49.055 46.04L49.655 46.66C50.555 47.59 51.555 48.4799 52.525 49.3499C52.715 49.5199 52.905 49.69 53.105 49.86L53.125 49.88L53.145 49.9C54.145 50.95 55.195 51.99 56.215 52.99L56.525 53.2999L56.545 53.32L56.565 53.34C58.305 55.32 60.105 57.34 61.905 59.32C62.175 59.6199 62.485 59.99 62.835 60.41C64.265 62.1399 66.415 64.7399 68.295 64.7399C68.695 64.7399 69.075 64.62 69.445 64.37L69.505 64.33L69.575 64.3C69.735 64.23 70.015 64.06 70.015 63.72V63.4199L70.225 63.2C70.225 63.2 70.295 63.1299 70.325 63.0999L70.365 63.07L70.935 62.5L71.065 62.6399C71.145 62.5099 71.225 62.3699 71.275 62.2599L71.295 62.2299L71.355 62.13L71.445 62.0499C71.815 61.7099 72.195 61.34 72.495 60.95C72.925 60.3899 73.345 59.82 73.745 59.27C74.565 58.15 75.425 56.99 76.395 55.88C78.175 53.87 79.985 51.66 82.245 48.7299L82.745 48.08C85.435 44.6 88.225 41.01 90.645 37.29L90.675 37.24L90.715 37.1899C90.915 36.9799 91.115 36.7599 91.315 36.5499C92.205 35.5999 93.115 34.6199 93.965 33.6199L94.865 32.56L95.295 33.8699C95.355 34.0399 95.405 34.21 95.465 34.38C95.715 35.12 95.945 35.8199 96.095 36.4399C96.645 38.6399 97.115 40.8799 97.565 43.0499C97.815 44.2299 98.065 45.4499 98.335 46.6399V46.72C98.385 47.05 98.625 47.54 99.145 47.54C99.225 47.54 99.305 47.5299 99.395 47.5099H99.445C99.445 47.5099 99.535 47.4699 99.585 47.4399L99.735 47.3699H99.905C100.225 47.3699 100.525 47.23 100.665 47.04C100.705 46.99 100.815 46.83 100.685 46.49C100.025 44.79 99.685 42.84 99.355 40.95L99.425 40.97Z" fill="#8A6A4E"/>
<path d="M22.7351 81.9599C22.5951 81.9599 22.4351 81.9299 22.2751 81.8599C21.9651 81.7299 21.7451 81.5699 21.5651 81.3799L21.4851 81.2999L21.3651 81.2699C21.1251 81.2199 20.8951 81.0699 20.7051 80.8599L20.6251 80.7699L20.5051 80.7399C19.9951 80.6199 19.5251 80.2399 19.3651 79.8199C19.2551 79.5199 19.3051 79.2299 19.5151 78.9499C21.4051 76.4199 23.4251 73.9199 25.3751 71.4999C25.9851 70.7399 26.6051 69.9799 27.2151 69.2199L27.3251 69.0599C27.4751 68.8499 27.6251 68.6299 27.7651 68.4099C29.9051 65.1499 32.3851 62.0199 34.5551 59.3399L34.6051 59.2799C36.6551 56.2599 38.4951 53.5999 40.6551 50.9699L40.8951 50.6299C41.1851 50.2099 41.4951 49.7799 41.7951 49.3599C42.5451 48.3099 43.3251 47.2999 43.9251 46.5199C44.6151 45.4999 45.3551 44.4499 46.1551 43.5599C46.2751 43.3699 46.3551 43.2299 46.4351 43.0899C46.8551 42.3599 47.2551 41.6799 47.7751 41.2899C48.2851 40.8999 48.9751 40.9299 49.5051 41.3199L49.6151 41.3799C49.7951 41.4399 49.9451 41.5299 50.0951 41.6699C51.4451 42.9299 52.6951 44.4499 53.8951 45.9099C54.2951 46.3899 54.6951 46.8799 55.0851 47.3499C56.0651 48.5099 57.1951 49.5299 58.2751 50.5199C58.8851 51.0699 59.5651 51.6899 60.2051 52.3299C61.2251 53.3399 62.2051 54.4099 63.1551 55.4399L64.0851 56.4399C64.3251 56.6999 64.6351 57.0599 64.9951 57.4699C65.8451 58.4599 66.9051 59.6799 67.7351 60.3599L68.0351 60.6099L68.2651 60.2999C70.3951 57.3899 72.8251 54.5999 75.1651 51.8999L75.2451 51.7999C75.8651 51.0799 76.5051 50.3399 77.1351 49.6099C77.8451 48.6299 78.4251 47.8599 78.9651 47.1699C80.4051 45.3599 81.9851 43.4199 83.7751 41.2499C86.2351 38.0399 88.6351 34.9099 91.0951 31.8399L91.2751 31.6199L91.8551 30.8999H91.6151L91.4651 30.8699L91.4451 30.9199L91.0851 30.9399C90.8451 30.9399 90.6251 30.9899 90.4151 31.0699C90.0051 31.2199 89.5651 31.3399 89.0951 31.4599C88.7251 31.5599 88.3651 31.6499 88.0351 31.7599C87.6251 31.8899 87.1951 32.0199 86.7851 32.1499C85.9951 32.3899 85.2351 32.6199 84.4851 32.8799C81.9151 33.7699 79.3451 34.1799 76.6251 34.6199L75.5351 34.8199C74.9151 35.1599 74.1251 35.0499 73.6951 34.4899L73.4551 34.1999C73.0351 33.8999 72.8151 33.2999 72.9251 32.7899C73.0151 32.3799 73.3151 32.0999 73.7551 32.0099C77.8551 31.1899 81.9251 30.0999 85.8551 29.0399C88.6651 28.2799 91.5151 27.5199 94.3551 26.8499C94.6451 26.7799 94.9151 26.7999 95.1551 26.9099L95.2551 26.9499H95.3651C95.7951 26.8799 96.1751 27.0099 96.4551 27.3199C96.7251 27.6099 96.8751 28.0299 96.8351 28.4099V28.4899C97.1251 30.4299 97.7051 32.4499 98.2651 34.3999C98.6051 35.5899 98.9551 36.8099 99.2351 37.9999C99.4451 38.8999 99.6151 39.8499 99.7951 40.8599V40.8899C100.125 42.7599 100.465 44.6899 101.105 46.3499C101.245 46.7099 101.225 47.0199 101.045 47.2699C100.835 47.5699 100.405 47.7699 99.9551 47.7699L99.8051 47.7999C99.7251 47.8399 99.6551 47.8599 99.5851 47.8799C99.4151 47.9199 99.2951 47.9399 99.1851 47.9399C98.4751 47.9399 98.0451 47.3499 97.9851 46.7599C97.7251 45.5599 97.4751 44.3799 97.2351 43.2299L97.2151 43.1299C96.7551 40.9399 96.2851 38.7199 95.7451 36.5399C95.5951 35.9299 95.3551 35.2099 95.1251 34.5099L94.7551 33.3799L94.3251 33.8799C93.4751 34.8899 92.5551 35.8699 91.6651 36.8199L91.0651 37.4599C88.5851 41.2399 85.8051 44.8399 83.1051 48.3199L82.6051 48.9699C80.3351 51.8999 78.5251 54.1199 76.7351 56.1399C75.7651 57.2399 74.9151 58.3899 74.1051 59.4999L74.0551 59.5699C73.6651 60.0999 73.2651 60.6499 72.8551 61.1799C72.5351 61.5999 72.1451 61.9799 71.7651 62.3299L71.6951 62.4099C71.6151 62.5499 71.5351 62.6899 71.4551 62.8299L71.1751 63.2999L70.9551 63.0599L70.6851 63.3299L70.3351 63.1099L70.6251 63.3899L70.4651 63.5499V63.6799C70.4651 64.0999 70.2151 64.4399 69.7851 64.6299C69.2851 64.9599 68.8351 65.1099 68.3451 65.1099C66.2651 65.1099 64.0451 62.4199 62.5651 60.6299C62.2151 60.2099 61.9151 59.8399 61.6451 59.5499C59.8451 57.5699 58.0451 55.5599 56.2951 53.5599L55.9651 53.2299C54.9451 52.2299 53.8851 51.1999 52.8751 50.1299L52.2851 49.5899C51.3151 48.7299 50.3151 47.8299 49.3951 46.8899L49.1151 46.5999L48.8551 46.9099C48.4751 47.3599 48.0951 47.8999 47.7651 48.3699C47.4951 48.7599 47.2551 49.0999 47.0351 49.3699C45.8551 50.8399 44.6251 52.2999 43.4751 53.6699C41.0451 56.5499 38.4751 59.6599 36.1251 62.8399C32.8651 67.2599 29.7951 71.8599 26.8251 76.2999C25.7851 77.8599 24.7051 79.4699 23.6351 81.0499L23.5951 81.1399C23.4451 81.6099 23.1051 81.8999 22.7051 81.8999L22.7351 81.9599ZM48.6051 41.8299C48.4951 41.8299 48.3951 41.8699 48.2851 41.9499C47.8951 42.2499 47.5351 42.8599 47.1951 43.4499C47.0751 43.6599 46.9851 43.7999 46.9051 43.9499L46.8251 44.0699C46.0051 44.9799 45.2851 46.0099 44.6251 46.9799C43.9951 47.7999 43.2151 48.8199 42.4751 49.8499C42.1751 50.2699 41.8751 50.6999 41.5751 51.1099L41.2951 51.4999C39.1551 54.0999 37.3251 56.7499 35.3351 59.6899L35.2051 59.8599C33.0551 62.5199 30.5851 65.6299 28.4651 68.8699C28.3151 69.0999 28.1651 69.3199 28.0051 69.5399L27.9051 69.6799C27.2551 70.4999 26.6351 71.2699 26.0351 72.0099C24.0751 74.4399 22.0551 76.9299 20.1851 79.4499C20.1451 79.5099 20.1351 79.5399 20.1351 79.5399C20.1951 79.6999 20.4451 79.9099 20.7051 79.9699L21.0751 80.0599L21.3251 80.3499C21.3951 80.4199 21.4651 80.4799 21.5351 80.4899L21.9051 80.5699L22.1551 80.8499C22.2551 80.9599 22.3851 81.0499 22.5051 81.0999C22.6651 81.1599 22.7051 81.1699 22.7251 81.1699C22.7451 81.1699 22.7951 81.0899 22.8351 80.9799L22.9851 80.6799C24.0551 79.0999 25.1351 77.4899 26.1751 75.9299C29.1551 71.4799 32.2351 66.8799 35.4951 62.4399C37.8551 59.2399 40.4351 56.1199 42.8751 53.2299C44.0251 51.8599 45.2551 50.4099 46.4251 48.9499C46.6251 48.6899 46.8651 48.3599 47.1051 48.0099C47.4551 47.4999 47.8451 46.9499 48.2551 46.4699L49.1051 45.4699L50.0151 46.4099C50.9151 47.3299 51.9051 48.2199 52.8651 49.0699L53.5051 49.6499C54.5051 50.7099 55.5551 51.7399 56.5751 52.7299L56.9551 53.1099C58.6951 55.0999 60.4951 57.1099 62.2851 59.0799C62.5651 59.3799 62.8651 59.7599 63.2251 60.1899C64.5251 61.7599 66.6851 64.3799 68.3751 64.3799C68.6951 64.3799 68.9851 64.2799 69.2951 64.0799L69.4251 63.9999C69.6851 63.8899 69.6851 63.7899 69.6851 63.7599V63.2999L71.0251 61.9599L71.0651 61.9999L71.2451 61.7999C71.5951 61.4699 71.9651 61.1199 72.2451 60.7499C72.6551 60.2199 73.0551 59.6799 73.4351 59.1499L73.4851 59.0799C74.3151 57.9599 75.1651 56.7899 76.1651 55.6599C77.9451 53.6499 79.7451 51.4499 82.0051 48.5299L82.5051 47.8799C85.1851 44.4099 87.9651 40.8299 90.3851 37.1199L90.4651 37.0099L91.1051 36.3199C91.9851 35.3699 92.9051 34.3999 93.7451 33.4099L95.1151 31.7899L95.9351 34.2999C96.1751 35.0099 96.4151 35.7499 96.5751 36.3899C97.1151 38.5799 97.5851 40.8199 98.0451 42.9799L98.0751 43.1099C98.3151 44.2599 98.5651 45.4399 98.8151 46.5999L98.8351 46.6899C98.8351 46.6899 98.9451 47.2799 99.3751 47.1699L99.6751 47.4999L99.5051 47.1399L99.8251 47.0299H99.9951C100.215 47.0299 100.385 46.9299 100.425 46.8699C100.425 46.8699 100.445 46.8199 100.395 46.6999C99.7251 44.9699 99.3751 42.9899 99.0451 41.0899V41.0599C98.8651 40.0599 98.6951 39.1199 98.4951 38.2399C98.2251 37.0699 97.8751 35.8599 97.5351 34.6899C96.9651 32.6999 96.3751 30.6499 96.0751 28.6599L96.0551 28.5199L96.0751 28.3799C96.0851 28.2299 96.0251 28.0399 95.9051 27.9199C95.7951 27.8099 95.6751 27.7699 95.5151 27.7899L95.1751 27.8299L94.8651 27.6899C94.7851 27.6499 94.6951 27.6499 94.5851 27.6799C91.7551 28.3399 88.9151 29.1099 86.1551 29.8499C82.1551 30.9299 78.0751 32.0199 73.9451 32.8399C73.7951 32.8699 73.7651 32.9299 73.7451 33.0099C73.6951 33.2099 73.7951 33.4799 73.9551 33.5899L74.2551 33.9099L74.3551 34.0399C74.5451 34.2899 74.8751 34.3099 75.1551 34.1499L75.4051 34.0399L76.5051 33.8599C79.1951 33.4299 81.7251 33.0199 84.2351 32.1499C84.9951 31.8899 85.7551 31.6499 86.4951 31.4299C86.9651 31.2899 87.3851 31.1599 87.7951 31.0299C88.1451 30.9199 88.5151 30.8199 88.8651 30.7299C89.3451 30.5999 89.7751 30.4899 90.1451 30.3499C90.3951 30.2599 90.6451 30.1999 90.9251 30.1799L91.0451 29.9099L91.4151 30.0699C91.4151 30.0699 91.4751 30.0899 91.5151 30.0999L91.7251 30.1499L93.6251 30.0699L91.5751 32.6199C89.1751 35.6099 86.8351 38.6599 84.4451 41.7799C82.6251 43.9799 81.0551 45.9099 79.6151 47.7199C79.0751 48.3999 78.5051 49.1599 77.8251 50.1099L77.7751 50.1799C77.1451 50.9199 76.4951 51.6599 75.8751 52.3799L75.7951 52.4699C73.4651 55.1599 71.0551 57.9299 68.9351 60.8199L68.1951 61.8299L67.2251 61.0299C66.3451 60.3099 65.2551 59.0499 64.3851 58.0399C64.0351 57.6299 63.7251 57.2799 63.4951 57.0299L62.5951 56.0599C61.6251 54.9999 60.6451 53.9499 59.6351 52.9499C59.0151 52.3299 58.3351 51.7099 57.7351 51.1699C56.6251 50.1599 55.4851 49.1299 54.4651 47.9199C54.0651 47.4499 53.6651 46.9599 53.2751 46.4899C52.0751 45.0299 50.8451 43.5399 49.5351 42.3099C49.4751 42.2499 49.4151 42.2199 49.3551 42.1999L49.1151 42.0999L49.0151 42.0199C48.8851 41.9199 48.7351 41.8699 48.6051 41.8699V41.8299Z" fill="#8A6A4E"/>
</g>
<path d="M115.555 92.2499C107.765 93.1399 99.8251 94.2799 91.9551 94.5199C82.5251 94.8099 73.1951 93.0599 63.8051 92.3499C54.6751 91.6499 45.5851 92.7499 36.4451 92.7799C33.3851 92.7799 30.3151 92.7599 27.2451 92.8099C24.3551 92.8499 21.4651 93.0299 18.5651 93.0299C15.7751 93.0299 12.8951 92.9499 10.1751 92.2099C8.07513 91.6299 5.97513 90.1999 5.43513 87.7399C5.07513 86.1099 5.43513 84.4099 5.28513 82.7599C5.14513 81.2699 4.70513 79.7899 4.36513 78.3499C3.60513 75.1599 2.75513 71.9999 2.62513 68.6799C2.55513 66.9999 2.59513 65.3199 2.64513 63.6399C2.68513 61.9699 2.66513 60.2899 2.73513 58.6199C2.79513 56.9799 2.97513 55.3399 3.09513 53.7099C3.22513 51.9999 3.19513 50.2899 3.28513 48.5799C3.47513 45.2599 4.03513 41.9399 3.70513 38.5999C3.55513 37.0199 3.17513 35.4899 2.91513 33.9299C2.63513 32.2699 2.68513 30.5999 2.69513 28.9299C2.79513 19.4199 2.94513 9.93993 3.22513 0.429932C2.90513 0.429932 2.58513 0.429932 2.26513 0.429932C1.46513 5.18993 1.44513 10.1199 1.46513 14.9799C1.52513 29.9599 1.58513 44.9299 1.71513 59.9099C1.80513 69.9099 -0.0348692 90.1599 11.3551 93.9399C14.1751 94.8799 17.1851 94.8899 20.1351 94.8999C50.1051 94.9699 80.3651 97.1699 110.285 95.0099C112.575 94.8499 116.665 94.7299 117.715 92.2099C116.985 92.0699 116.285 92.1699 115.535 92.2599L115.555 92.2499Z" fill="#8A6A4E"/>
<path d="M80.785 96.34C70.355 96.34 59.945 96.07 49.725 95.81C40.025 95.56 29.995 95.31 20.165 95.28C17.215 95.28 14.165 95.27 11.255 94.3C0.955029 90.89 1.16503 74.67 1.29503 63.94C1.31503 62.48 1.33503 61.12 1.32503 59.91C1.19503 44.78 1.13503 29.63 1.07503 14.98C1.05503 9.72002 1.10503 5.00002 1.87503 0.36002C1.90503 0.17002 2.07503 0.0200195 2.27503 0.0200195H3.23503C3.34503 0.0200195 3.44503 0.0600195 3.52503 0.13002C3.60503 0.21002 3.64503 0.310019 3.64503 0.42002C3.39503 8.69002 3.23503 17.48 3.11503 28.91V29.34C3.09503 30.89 3.07503 32.36 3.32503 33.84C3.41503 34.36 3.51503 34.87 3.61503 35.38C3.81503 36.41 4.02503 37.47 4.12503 38.54C4.35503 40.93 4.14503 43.33 3.93503 45.65C3.84503 46.63 3.76503 47.6 3.70503 48.58C3.66503 49.34 3.64503 50.09 3.62503 50.85C3.60503 51.79 3.58503 52.76 3.50503 53.72C3.46503 54.24 3.42503 54.76 3.37503 55.28C3.28503 56.37 3.18503 57.5 3.14503 58.61C3.10503 59.56 3.10503 60.5 3.09503 61.45C3.09503 62.17 3.08503 62.9 3.06503 63.62C3.02503 65.17 2.97503 66.92 3.04503 68.64C3.16503 71.57 3.85503 74.45 4.53503 77.24L4.77503 78.23C4.84503 78.54 4.92503 78.86 5.00503 79.17C5.29503 80.31 5.59503 81.5 5.70503 82.7C5.77503 83.41 5.74503 84.13 5.71503 84.83C5.67503 85.81 5.64503 86.73 5.84503 87.63C6.46503 90.46 9.16503 91.48 10.295 91.79C12.985 92.53 15.925 92.6 18.475 92.6H18.585C20.225 92.6 21.895 92.54 23.505 92.48C24.755 92.44 26.005 92.39 27.255 92.37C29.345 92.34 31.445 92.34 33.535 92.34C34.505 92.34 35.485 92.34 36.455 92.34C39.875 92.34 43.345 92.17 46.705 92.01C52.315 91.75 58.105 91.48 63.835 91.91C66.995 92.15 70.205 92.51 73.305 92.87C79.405 93.56 85.705 94.28 91.935 94.09C98.175 93.9 104.545 93.13 110.715 92.39C112.315 92.2 113.915 92 115.505 91.82L115.715 91.8C116.415 91.72 117.085 91.64 117.815 91.78C117.935 91.8 118.035 91.88 118.095 91.98C118.155 92.09 118.155 92.21 118.115 92.33C117.035 94.92 113.265 95.17 110.775 95.34L110.335 95.37C100.555 96.08 90.655 96.31 80.785 96.31V96.34ZM8.68503 92.07C9.51503 92.69 10.455 93.19 11.505 93.54C14.285 94.46 17.275 94.47 20.155 94.48C29.995 94.5 40.035 94.76 49.735 95.01C69.625 95.52 90.185 96.04 110.275 94.6L110.715 94.57C112.815 94.43 115.895 94.22 117.085 92.54C116.665 92.54 116.245 92.58 115.805 92.63L115.595 92.65C114.005 92.83 112.415 93.02 110.815 93.22C104.635 93.97 98.245 94.74 91.965 94.93C85.675 95.12 79.345 94.4 73.215 93.71C70.125 93.36 66.925 93 63.775 92.76C58.095 92.33 52.325 92.6 46.745 92.86C43.375 93.02 39.895 93.18 36.455 93.19C35.485 93.19 34.505 93.19 33.535 93.19C31.445 93.19 29.355 93.19 27.265 93.22C26.025 93.24 24.775 93.28 23.535 93.33C21.915 93.39 20.235 93.44 18.585 93.45C15.935 93.46 12.915 93.39 10.085 92.61C9.72503 92.51 9.23503 92.35 8.69503 92.1L8.68503 92.07ZM2.63503 0.82002C1.92503 5.29002 1.87503 9.88002 1.89503 14.97C1.95503 29.62 2.00503 44.76 2.14503 59.89C2.15503 61.1 2.14503 62.47 2.11503 63.94C2.02503 71.14 1.89503 80.85 4.95503 87.29C4.84503 86.46 4.87503 85.62 4.90503 84.81C4.93503 84.14 4.95503 83.44 4.90503 82.78C4.80503 81.64 4.50503 80.49 4.22503 79.38C4.14503 79.06 4.06503 78.74 3.98503 78.43L3.74503 77.44C3.06503 74.62 2.35503 71.7 2.23503 68.69C2.16503 66.95 2.21503 65.18 2.25503 63.62C2.27503 62.9 2.28503 62.18 2.28503 61.46C2.28503 60.51 2.30503 59.55 2.33503 58.6C2.37503 57.47 2.47503 56.33 2.56503 55.23C2.60503 54.71 2.65503 54.19 2.69503 53.67C2.76503 52.73 2.78503 51.77 2.80503 50.84C2.82503 50.07 2.84503 49.31 2.88503 48.54C2.94503 47.55 3.02503 46.57 3.11503 45.58C3.31503 43.3 3.53503 40.93 3.30503 38.62C3.20503 37.58 3.00503 36.54 2.80503 35.53C2.70503 35.01 2.60503 34.49 2.51503 33.97C2.25503 32.42 2.27503 30.85 2.28503 29.33V28.9C2.40503 17.65 2.57503 8.96002 2.80503 0.81002H2.61503L2.63503 0.82002Z" fill="#8A6A4E"/>
<path d="M118.185 93.1499C117.965 93.1899 117.755 93.2299 117.535 93.2799C116.845 93.4299 116.165 93.4299 115.475 93.5099C114.835 93.5799 114.235 93.8199 113.615 93.9899C112.985 94.1699 112.355 94.1799 111.705 94.1399C110.945 94.0999 110.195 93.9899 109.435 94.0399C108.775 94.0799 108.125 94.2199 107.485 94.3499C106.035 94.6599 104.595 94.6299 103.125 94.7399C101.665 94.8499 100.215 95.0299 98.7549 95.1299C97.3949 95.2299 96.1549 95.8399 94.7849 95.8199C93.3149 95.7999 91.8549 95.7499 90.3749 95.7699C88.8049 95.7999 87.2249 95.8399 85.6449 95.8499C84.1949 95.8499 82.6749 95.9199 81.2449 95.6499C79.8349 95.3799 78.4849 94.8499 77.0649 94.6499C75.6049 94.4399 74.1149 94.3699 72.6549 94.1899C71.1549 94.0099 69.7249 94.0199 68.2249 94.0299C66.7549 94.0299 65.3049 93.6699 63.8449 93.5299C62.3549 93.3899 60.8349 93.4699 59.3349 93.4599C57.8049 93.4599 56.2749 93.4599 54.7449 93.4599C53.2249 93.4599 51.7049 93.3799 50.1949 93.5899C48.6849 93.7899 47.2149 94.0399 45.6849 94.0299C42.5749 93.9999 39.4649 94.0099 36.3649 94.0099C33.3049 94.0099 30.2349 93.9899 27.1649 94.0399C24.2749 94.0799 21.3849 94.2599 18.4849 94.2599C15.6949 94.2599 12.8149 94.1799 10.0949 93.4399C7.99494 92.8599 5.89494 91.4299 5.35494 88.9699C4.99494 87.3399 5.35494 85.6399 5.20494 83.9899C5.06494 82.4999 4.62494 81.0199 4.28494 79.5799C3.52494 76.3899 2.68494 73.2299 2.54494 69.9099C2.47494 68.2299 2.51494 66.5499 2.56494 64.8699C2.60494 63.1999 2.58494 61.5199 2.65494 59.8499C2.71494 58.2099 2.89494 56.5699 3.01494 54.9399C3.14494 53.2299 3.11494 51.5199 3.20494 49.8099C3.39494 46.4899 3.95494 43.1699 3.62494 39.8299C3.47494 38.2499 3.09494 36.7199 2.83494 35.1599C2.55494 33.4999 2.60494 31.8299 2.61494 30.1599C2.68494 23.3799 2.52494 16.5999 2.63494 9.8299C2.68494 6.6599 2.95494 3.5099 3.52494 0.399902C3.04494 0.399902 2.55494 0.399902 2.07494 0.409902C1.93494 1.2199 1.82494 2.0299 1.71494 2.8399C1.47494 4.4999 1.33494 6.1699 1.26494 7.8499C1.12494 11.2999 1.19494 14.7599 1.19494 18.2099C1.19494 21.6599 1.19494 25.3099 1.19494 28.8499C1.19494 30.5699 1.07494 32.3099 1.24494 34.0199C1.40494 35.6799 1.82494 37.2799 2.08494 38.9199C2.61494 42.3499 2.05494 45.8099 1.81494 49.2399C1.69494 50.9499 1.74494 52.6699 1.62494 54.3799C1.51494 56.0699 1.32494 57.7399 1.24494 59.4299C1.16494 61.1399 1.19494 62.8699 1.14494 64.5799C1.10494 66.3099 1.05494 68.0399 1.11494 69.7699C1.23494 73.1899 2.05494 76.4399 2.84494 79.7299C3.20494 81.2399 3.72494 82.8299 3.80494 84.3899C3.88494 86.0599 3.61494 87.7399 3.97494 89.3899C4.51494 91.8699 6.36494 93.5899 8.44494 94.4999C10.9249 95.5899 13.8549 95.7099 16.4949 95.7999C19.5249 95.8999 22.5449 95.7299 25.5749 95.6399C31.9149 95.4599 38.2749 95.5499 44.6149 95.5899C46.1449 95.5999 47.6249 95.5499 49.1449 95.3099C50.7149 95.0699 52.2249 95.0199 53.8049 95.0199C56.9349 95.0299 60.0949 94.8699 63.2149 95.0399C64.7249 95.1199 66.2049 95.5099 67.7149 95.5799C68.5549 95.6199 69.3949 95.5199 70.2349 95.5299C70.9549 95.5299 71.6749 95.6299 72.3949 95.7199C73.9149 95.8999 75.4549 95.9799 76.9649 96.1999C78.4449 96.4199 79.8549 97.0099 81.3349 97.2299C82.8349 97.4599 84.3949 97.4099 85.9049 97.3999C87.4849 97.3999 89.0549 97.3499 90.6349 97.3199C92.1349 97.2899 93.6449 97.4099 95.1349 97.3699C95.8549 97.3499 96.5249 97.1999 97.2149 96.9699C97.8849 96.7399 98.5449 96.6999 99.2449 96.6399C100.745 96.5199 102.235 96.3399 103.735 96.2399C105.215 96.1399 106.615 96.0899 108.075 95.7899C109.595 95.4699 111.015 95.7499 112.535 95.6999C113.255 95.6799 113.915 95.4899 114.605 95.2799C115.265 95.0699 115.865 95.0499 116.545 94.9799C117.175 94.9199 117.815 94.7999 118.445 94.6799C118.355 94.1599 118.265 93.6399 118.175 93.1199L118.185 93.1499Z" fill="#8A6A4E"/>
<path d="M84.405 97.85C83.365 97.85 82.315 97.82 81.285 97.66C80.525 97.54 79.785 97.34 79.065 97.14C78.365 96.94 77.635 96.74 76.915 96.63C76.045 96.5 75.145 96.42 74.265 96.34C73.625 96.28 72.985 96.23 72.355 96.15L72.115 96.12C71.495 96.04 70.865 95.97 70.245 95.96C69.875 95.96 69.535 95.97 69.185 95.99C68.705 96.01 68.205 96.03 67.705 96.01C66.915 95.97 66.135 95.85 65.375 95.73C64.665 95.62 63.925 95.5 63.205 95.46C61.155 95.35 59.055 95.38 57.025 95.41C55.955 95.43 54.885 95.44 53.815 95.44C52.475 95.44 50.895 95.47 49.225 95.72C47.505 95.98 45.855 96.01 44.625 96L41.945 95.98C36.585 95.94 31.045 95.9 25.605 96.05C24.905 96.07 24.195 96.09 23.495 96.12C21.205 96.2 18.835 96.28 16.505 96.21C14.025 96.13 10.935 96.03 8.30495 94.88C5.82495 93.8 4.11495 91.83 3.60495 89.48C3.36495 88.38 3.39495 87.27 3.42495 86.2C3.44495 85.61 3.45495 85.01 3.42495 84.42C3.36495 83.27 3.05495 82.08 2.75495 80.93C2.65495 80.56 2.56495 80.2 2.47495 79.83L2.38495 79.47C1.63495 76.35 0.854954 73.12 0.734954 69.79C0.674954 68.11 0.714954 66.4 0.764954 64.75V64.58C0.784954 63.9 0.794954 63.22 0.794954 62.53C0.794954 61.51 0.814954 60.45 0.864954 59.41C0.914954 58.41 0.994954 57.41 1.08495 56.44C1.14495 55.75 1.20495 55.05 1.25495 54.35C1.31495 53.51 1.33495 52.65 1.34495 51.81C1.36495 50.96 1.38495 50.08 1.44495 49.21C1.49495 48.42 1.57495 47.62 1.64495 46.83C1.87495 44.24 2.11495 41.57 1.71495 38.98C1.61495 38.34 1.49495 37.71 1.36495 37.08C1.17495 36.1 0.974954 35.09 0.874954 34.06C0.754954 32.82 0.784954 31.56 0.804954 30.34C0.804954 29.84 0.824954 29.34 0.824954 28.85V18.21C0.824954 17.35 0.824954 16.49 0.824954 15.63C0.814954 13.07 0.794954 10.43 0.904954 7.83C0.974954 6.03 1.12495 4.38 1.35495 2.78L1.43495 2.2C1.52495 1.58 1.61495 0.96 1.71495 0.34C1.74495 0.15 1.91495 0 2.11495 0H3.56495C3.69495 0 3.80495 0.04 3.88495 0.13C3.96495 0.22 3.99495 0.34 3.97495 0.46C3.43495 3.43 3.14495 6.49 3.08495 9.83C3.02495 13.46 3.04495 17.16 3.06495 20.73C3.08495 23.82 3.09495 27.01 3.06495 30.16V30.59C3.04495 32.14 3.02495 33.61 3.27495 35.09C3.36495 35.61 3.46495 36.12 3.56495 36.64C3.76495 37.66 3.97495 38.72 4.07495 39.79C4.30495 42.18 4.09495 44.58 3.88495 46.9C3.79495 47.88 3.71495 48.85 3.65495 49.83C3.61495 50.58 3.59495 51.34 3.57495 52.09C3.55495 53.03 3.53495 54 3.45495 54.96C3.41495 55.48 3.37495 56 3.32495 56.52C3.23495 57.61 3.13495 58.74 3.09495 59.85C3.05495 60.8 3.05495 61.74 3.04495 62.69C3.04495 63.41 3.03495 64.14 3.01495 64.86C2.97495 66.49 2.92495 68.18 2.99495 69.88C3.11495 72.82 3.81495 75.7 4.48495 78.49L4.72495 79.48C4.80495 79.8 4.88495 80.11 4.96495 80.43C5.25495 81.57 5.55495 82.75 5.65495 83.95C5.72495 84.66 5.69495 85.38 5.66495 86.08C5.62495 87.06 5.59495 87.98 5.79495 88.88C6.41495 91.7 9.11495 92.73 10.245 93.04C12.935 93.78 15.855 93.85 18.405 93.85H18.525C20.165 93.85 21.825 93.79 23.445 93.73C24.695 93.69 25.945 93.64 27.195 93.62C29.285 93.59 31.365 93.59 33.455 93.59C34.435 93.59 35.415 93.59 36.395 93.59C39.505 93.59 42.615 93.59 45.725 93.61C47.015 93.63 48.185 93.45 49.455 93.27L50.175 93.17C51.395 93 52.625 93.02 53.815 93.03C54.135 93.03 54.455 93.03 54.775 93.03H59.375C59.775 93.03 60.165 93.03 60.565 93.03C61.665 93.01 62.805 93 63.925 93.11C64.485 93.16 65.045 93.25 65.605 93.34C66.475 93.48 67.395 93.62 68.265 93.61H68.465C69.915 93.61 71.285 93.59 72.745 93.77C73.385 93.85 74.025 93.91 74.665 93.96C75.485 94.03 76.335 94.11 77.175 94.23C77.995 94.35 78.795 94.57 79.565 94.78C80.155 94.94 80.765 95.11 81.375 95.23C82.535 95.45 83.775 95.44 84.985 95.43H85.695C86.825 95.43 87.955 95.4 89.095 95.37L90.415 95.34C91.395 95.32 92.385 95.34 93.345 95.36C93.835 95.37 94.335 95.38 94.825 95.39C95.545 95.39 96.185 95.23 96.895 95.05C97.495 94.9 98.115 94.74 98.765 94.7C99.545 94.64 100.315 94.57 101.095 94.49C101.775 94.42 102.455 94.36 103.135 94.3C103.575 94.27 104.015 94.24 104.455 94.22C105.485 94.17 106.455 94.12 107.445 93.91C108.055 93.78 108.745 93.63 109.455 93.59C110.025 93.56 110.585 93.6 111.135 93.65C111.345 93.67 111.565 93.69 111.775 93.7C112.305 93.73 112.925 93.74 113.545 93.56C113.715 93.51 113.885 93.46 114.045 93.41C114.495 93.27 114.965 93.12 115.465 93.07C115.705 93.04 115.945 93.02 116.185 93C116.635 92.96 117.055 92.93 117.485 92.84C117.605 92.81 117.725 92.79 117.845 92.77L118.135 92.71C118.235 92.69 118.355 92.71 118.445 92.77C118.535 92.83 118.595 92.92 118.615 93.03C118.715 93.55 118.805 94.07 118.895 94.59C118.935 94.8 118.785 95.01 118.575 95.05C117.965 95.17 117.305 95.29 116.635 95.36L116.285 95.39C115.745 95.44 115.275 95.48 114.775 95.64C114.135 95.84 113.395 96.06 112.595 96.08C112.035 96.1 111.495 96.08 110.975 96.05C110.035 96.01 109.135 95.97 108.215 96.16C106.915 96.43 105.685 96.51 104.375 96.59L103.815 96.62C102.945 96.68 102.065 96.76 101.195 96.85C100.575 96.91 99.955 96.97 99.335 97.02H99.215C98.585 97.08 97.9949 97.13 97.405 97.33C96.595 97.6 95.895 97.74 95.205 97.76C94.415 97.78 93.615 97.76 92.835 97.74C92.125 97.72 91.405 97.7 90.695 97.71L89.145 97.74C88.085 97.76 87.025 97.78 85.965 97.79H85.385C85.075 97.79 84.765 97.79 84.455 97.79L84.405 97.85ZM70.175 95.15H70.245C70.915 95.15 71.575 95.24 72.215 95.31L72.455 95.34C73.085 95.42 73.715 95.47 74.345 95.53C75.235 95.61 76.145 95.69 77.045 95.83C77.815 95.95 78.565 96.16 79.295 96.36C79.985 96.55 80.705 96.75 81.415 96.86C82.695 97.06 84.035 97.05 85.335 97.03H85.925C86.985 97.03 88.035 97 89.085 96.98L90.645 96.95C91.375 96.94 92.095 96.95 92.825 96.98C93.585 97 94.375 97.02 95.145 97C95.765 96.98 96.365 96.87 97.105 96.62C97.785 96.39 98.435 96.34 99.115 96.28H99.235C99.855 96.22 100.465 96.16 101.085 96.1C101.965 96.01 102.845 95.93 103.735 95.87L104.295 95.83C105.565 95.75 106.775 95.68 108.015 95.42C109.045 95.21 110.035 95.25 110.985 95.3C111.495 95.32 112.025 95.35 112.545 95.33C113.235 95.31 113.895 95.12 114.505 94.93C115.095 94.74 115.625 94.7 116.195 94.65L116.535 94.62C117.035 94.57 117.535 94.49 118.005 94.4C117.965 94.15 117.915 93.89 117.875 93.64C117.795 93.65 117.715 93.67 117.645 93.69C117.165 93.79 116.695 93.83 116.235 93.87C116.005 93.89 115.775 93.91 115.545 93.93C115.125 93.98 114.715 94.11 114.275 94.24C114.105 94.29 113.925 94.35 113.755 94.4C113.015 94.61 112.305 94.6 111.715 94.57C111.495 94.56 111.275 94.54 111.055 94.52C110.515 94.48 110.005 94.43 109.495 94.47C108.845 94.51 108.185 94.65 107.605 94.77C106.555 94.99 105.505 95.05 104.485 95.1C104.055 95.12 103.625 95.14 103.195 95.18C102.515 95.23 101.845 95.3 101.175 95.36C100.395 95.44 99.605 95.51 98.825 95.57C98.245 95.61 97.685 95.75 97.095 95.9C96.365 96.08 95.605 96.26 94.815 96.26C94.315 96.26 93.825 96.24 93.325 96.23C92.375 96.21 91.395 96.19 90.425 96.21L89.105 96.24C87.965 96.26 86.835 96.29 85.695 96.29H84.985C83.735 96.31 82.455 96.32 81.215 96.08C80.575 95.96 79.955 95.78 79.345 95.62C78.595 95.41 77.825 95.2 77.055 95.09C76.245 94.97 75.405 94.9 74.595 94.82C73.945 94.76 73.295 94.7 72.655 94.62C71.255 94.45 69.905 94.46 68.475 94.46H68.275C67.345 94.47 66.395 94.32 65.485 94.18C64.945 94.1 64.395 94.01 63.855 93.96C62.775 93.86 61.665 93.87 60.585 93.89C60.185 93.89 59.795 93.89 59.385 93.89H54.795C54.445 93.88 54.145 93.89 53.815 93.89C52.655 93.88 51.455 93.87 50.295 94.02L49.585 94.12C48.335 94.3 47.005 94.48 45.735 94.47C42.625 94.44 39.525 94.45 36.415 94.45C35.435 94.45 34.455 94.45 33.465 94.45C31.385 94.45 29.305 94.45 27.225 94.48C25.975 94.5 24.735 94.54 23.485 94.59C21.865 94.65 20.195 94.7 18.535 94.71C15.935 94.69 12.865 94.65 10.035 93.87C8.76495 93.52 5.72495 92.36 5.00495 89.1C4.78495 88.1 4.82495 87.08 4.86495 86.1C4.89495 85.43 4.91495 84.73 4.86495 84.07C4.76495 82.94 4.47495 81.79 4.19495 80.68C4.11495 80.36 4.03495 80.04 3.95495 79.72L3.71495 78.74C3.03495 75.91 2.32495 72.99 2.20495 69.98C2.13495 68.26 2.17495 66.56 2.22495 64.91C2.24495 64.19 2.25495 63.47 2.25495 62.75C2.25495 61.8 2.27495 60.84 2.30495 59.89C2.34495 58.76 2.44495 57.62 2.53495 56.52C2.57495 56 2.62495 55.48 2.66495 54.96C2.73495 54.02 2.75495 53.06 2.78495 52.13C2.80495 51.37 2.81495 50.6 2.86495 49.84C2.92495 48.86 3.00495 47.87 3.09495 46.89C3.30495 44.6 3.51495 42.24 3.28495 39.93C3.18495 38.9 2.98495 37.86 2.78495 36.85C2.68495 36.33 2.58495 35.81 2.49495 35.28C2.23495 33.73 2.25495 32.16 2.26495 30.64V30.21C2.30495 27.07 2.28495 23.88 2.26495 20.8C2.24495 17.22 2.22495 13.52 2.28495 9.88C2.33495 6.68 2.60495 3.72 3.09495 0.86H2.47495C2.39495 1.37 2.32495 1.87 2.25495 2.37L2.17495 2.95C1.94495 4.53 1.80495 6.15 1.73495 7.92C1.62495 10.5 1.64495 13.13 1.65495 15.68C1.65495 16.54 1.65495 17.4 1.65495 18.26V28.9C1.65495 29.4 1.64495 29.9 1.63495 30.41C1.61495 31.61 1.58495 32.84 1.70495 34.03C1.80495 35.02 1.99495 36.01 2.18495 36.97C2.31495 37.61 2.43495 38.26 2.53495 38.91C2.94495 41.59 2.70495 44.32 2.46495 46.95C2.39495 47.74 2.32495 48.53 2.26495 49.32C2.20495 50.17 2.18495 51.04 2.17495 51.88C2.15495 52.72 2.13495 53.59 2.08495 54.45C2.03495 55.15 1.97495 55.85 1.91495 56.55C1.83495 57.51 1.74495 58.51 1.69495 59.49C1.64495 60.51 1.63495 61.56 1.62495 62.58C1.62495 63.27 1.61495 63.95 1.59495 64.64V64.81C1.54495 66.45 1.50495 68.14 1.56495 69.8C1.68495 73.05 2.45495 76.24 3.19495 79.32L3.28495 79.68C3.37495 80.04 3.46495 80.4 3.56495 80.76C3.87495 81.95 4.20495 83.18 4.26495 84.42C4.29495 85.04 4.27495 85.66 4.26495 86.26C4.23495 87.33 4.20495 88.34 4.42495 89.35C4.88495 91.44 6.42495 93.2 8.66495 94.18C11.155 95.27 14.155 95.36 16.565 95.44C18.875 95.51 21.225 95.44 23.505 95.35C24.215 95.33 24.915 95.3 25.625 95.28C31.075 95.13 36.635 95.17 41.995 95.21L44.675 95.23C45.895 95.23 47.485 95.21 49.145 94.96C50.875 94.69 52.485 94.66 53.865 94.67C54.925 94.67 55.9949 94.66 57.055 94.64C59.1049 94.61 61.215 94.58 63.295 94.69C64.055 94.73 64.815 94.85 65.545 94.96C66.285 95.07 67.045 95.19 67.795 95.23C68.255 95.25 68.715 95.23 69.195 95.21C69.545 95.19 69.885 95.18 70.235 95.18L70.175 95.15Z" fill="#8A6A4E"/>
<path d="M4.21499 55.0399C4.39499 53.4699 4.69499 51.9199 4.76499 50.3299C4.91499 46.9799 4.18499 43.6999 3.82499 40.3899C3.63499 38.6899 3.58499 36.9799 3.36499 35.2799C3.15499 33.6499 2.89499 32.0299 2.74499 30.3899C2.59499 28.7299 2.52499 27.0499 2.39499 25.3799C2.26499 23.6999 2.13499 22.0299 2.11499 20.3499C2.07499 17.0299 2.75499 13.8299 3.34499 10.5999C3.61499 9.13991 3.97499 7.63991 4.03499 6.14991C4.09499 4.48991 3.64499 2.80991 3.91499 1.16991C3.95499 0.899912 4.02499 0.649912 4.10499 0.409912C3.92499 0.409912 3.74499 0.409912 3.56499 0.409912C-0.375008 8.36991 1.33499 21.6299 1.66499 29.1599C2.31499 44.1199 3.03499 59.0799 3.76499 74.0399C4.08499 80.5599 4.42499 87.2199 6.67499 93.2999C5.70499 82.1999 4.96499 71.1499 4.26499 60.0499C4.15499 58.3699 4.02499 56.7099 4.21499 55.0399Z" fill="#8A6A4E"/>
<path d="M6.67489 93.7C6.50489 93.7 6.35489 93.6 6.29489 93.44C3.99489 87.24 3.67489 80.54 3.36489 74.06L3.34489 73.6C2.64489 59.04 1.91489 43.99 1.26489 29.17C1.21489 27.97 1.12489 26.62 1.03489 25.17C0.524892 17.51 -0.155108 7.01 3.20489 0.230001C3.27489 0.0900014 3.41489 0.0100014 3.56489 1.37975e-06H4.10489C4.26489 -0.0299986 4.35489 0.0600014 4.43489 0.160001C4.51489 0.260001 4.53489 0.400001 4.49489 0.520001C4.40489 0.780001 4.35489 1.01 4.31489 1.22C4.16489 2.13 4.24489 3.05 4.33489 4.02C4.39489 4.71 4.46489 5.43 4.43489 6.15C4.38489 7.35 4.15489 8.55 3.92489 9.7C3.86489 10.02 3.79489 10.34 3.74489 10.66L3.55489 11.66C3.02489 14.48 2.48489 17.39 2.51489 20.33C2.53489 22.05 2.67489 23.8 2.79489 25.34C2.85489 26.07 2.89489 26.79 2.94489 27.52C3.00489 28.46 3.06489 29.4 3.14489 30.34C3.24489 31.45 3.40489 32.58 3.55489 33.67C3.62489 34.19 3.69489 34.7 3.76489 35.22C3.88489 36.17 3.96489 37.14 4.03489 38.08C4.09489 38.83 4.14489 39.59 4.23489 40.34C4.34489 41.31 4.47489 42.28 4.61489 43.25C4.94489 45.56 5.28489 47.94 5.17489 50.34C5.12489 51.41 4.97489 52.48 4.83489 53.51C4.76489 54.03 4.68489 54.55 4.62489 55.07C4.45489 56.56 4.54489 58.03 4.64489 59.58L4.67489 60.01C5.33489 70.54 6.09489 81.86 7.08489 93.25C7.10489 93.45 6.96489 93.63 6.76489 93.68C6.73489 93.68 6.70489 93.68 6.67489 93.68V93.7ZM3.45489 1.67C0.744892 8.27 1.37489 17.95 1.83489 25.12C1.92489 26.58 2.01489 27.93 2.07489 29.14C2.71489 43.95 3.44489 59 4.14489 73.56L4.16489 74.02C4.41489 79.19 4.67489 84.5 5.94489 89.55C5.10489 79.44 4.44489 69.45 3.85489 60.08L3.82489 59.65C3.72489 58.13 3.62489 56.56 3.80489 55C3.86489 54.47 3.94489 53.94 4.01489 53.42C4.15489 52.41 4.30489 51.36 4.35489 50.33C4.45489 48.01 4.12489 45.66 3.80489 43.39C3.66489 42.41 3.52489 41.43 3.41489 40.45C3.33489 39.69 3.27489 38.92 3.21489 38.16C3.14489 37.23 3.07489 36.28 2.95489 35.34C2.88489 34.83 2.81489 34.31 2.74489 33.8C2.59489 32.7 2.43489 31.57 2.33489 30.44C2.24489 29.49 2.19489 28.54 2.13489 27.6C2.09489 26.88 2.04489 26.15 1.98489 25.43C1.86489 23.88 1.72489 22.11 1.70489 20.37C1.66489 17.35 2.22489 14.4 2.75489 11.54L2.94489 10.54C3.00489 10.22 3.06489 9.9 3.13489 9.57C3.35489 8.44 3.58489 7.28 3.63489 6.14C3.66489 5.48 3.59489 4.78 3.53489 4.11C3.46489 3.31 3.38489 2.49 3.45489 1.67Z" fill="#8A6A4E"/>
<path d="M5.19499 79.0999C4.73499 72.3399 4.53499 65.5599 4.10499 58.7999C3.99499 57.1199 3.86499 55.4599 4.05499 53.7899C4.23499 52.2199 4.53499 50.6699 4.60499 49.0799C4.75499 45.7299 4.02499 42.4499 3.66499 39.1399C3.47499 37.4399 3.42499 35.7299 3.20499 34.0299C2.99499 32.3999 2.73499 30.7799 2.58499 29.1399C2.43499 27.4799 2.36499 25.7999 2.23499 24.1299C2.10499 22.4499 1.97499 20.7799 1.95499 19.0999C1.91499 15.7799 2.59499 12.5799 3.18499 9.34991C3.45499 7.88991 3.81499 6.38991 3.87499 4.89991C3.93499 3.40991 3.57499 1.89991 3.70499 0.409912C3.23499 0.409912 2.75499 0.409912 2.28499 0.419912C2.21499 1.79991 2.46499 3.17991 2.46499 4.56991C2.46499 6.13991 2.03499 7.74991 1.74499 9.27991C1.13499 12.5999 0.494989 15.8899 0.544989 19.3099C0.574989 21.0399 0.714989 22.7699 0.844989 24.4899C0.974989 26.1999 1.03499 27.9199 1.21499 29.6299C1.38499 31.3099 1.66499 32.9799 1.86499 34.6499C2.06499 36.3499 2.11499 38.0699 2.32499 39.7699C2.73499 43.1799 3.48499 46.6099 3.13499 50.0599C2.96499 51.7099 2.62499 53.3299 2.55499 54.9999C2.47499 56.7199 2.68499 58.4499 2.77499 60.1699C2.96499 63.7099 3.14499 67.2599 3.33499 70.7999C3.51499 74.2499 3.62499 77.7099 3.94499 81.1399C4.10499 82.8099 4.32499 84.4799 4.65499 86.1199C4.93499 87.5299 5.17499 88.9699 5.62499 90.3299C5.88499 91.1199 6.23499 91.8799 6.64499 92.5899C7.16499 92.4999 7.69499 92.4099 8.21499 92.3299C7.44499 91.2099 6.92499 89.8699 6.59499 88.4999C5.85499 85.4099 5.42499 82.2699 5.20499 79.0899L5.19499 79.0999Z" fill="#8A6A4E"/>
<path d="M6.62496 93C6.48496 93 6.34496 92.92 6.27496 92.8C5.83496 92.04 5.47496 91.26 5.21496 90.46C4.83496 89.29 4.59496 88.06 4.36496 86.87L4.23496 86.2C3.92496 84.61 3.68496 82.97 3.52496 81.18C3.28496 78.59 3.15496 75.94 3.03496 73.38C2.99496 72.52 2.95496 71.67 2.91496 70.82L2.35496 60.19C2.32496 59.7 2.29496 59.2 2.25496 58.7C2.16496 57.48 2.07496 56.22 2.13496 54.98C2.18496 53.95 2.32496 52.93 2.46496 51.94C2.55496 51.3 2.64496 50.66 2.71496 50.02C2.97496 47.41 2.59496 44.76 2.23496 42.19C2.12496 41.4 2.00496 40.61 1.91496 39.82C1.81496 38.95 1.74496 38.07 1.68496 37.22C1.62496 36.39 1.56496 35.53 1.46496 34.7C1.38496 34.01 1.28496 33.32 1.18496 32.63C1.04496 31.66 0.914959 30.66 0.814959 29.67C0.714959 28.63 0.644959 27.58 0.584959 26.56C0.544959 25.88 0.504959 25.2 0.444959 24.52V24.38C0.294959 22.73 0.164959 21.01 0.134959 19.32C0.0849591 15.99 0.694959 12.73 1.28496 9.57002L1.35496 9.20002C1.42496 8.83002 1.49496 8.46002 1.57496 8.09002C1.81496 6.93002 2.06496 5.72002 2.06496 4.57002C2.06496 3.98002 2.01496 3.38002 1.97496 2.79002C1.91496 2.01002 1.85496 1.20002 1.89496 0.40002C1.90496 0.19002 2.08496 0.0200195 2.29496 0.0200195H3.71496C3.85496 0.0200195 3.94496 0.0500195 4.01496 0.14002C4.09496 0.22002 4.13496 0.33002 4.12496 0.45002C4.06496 1.21002 4.12496 1.98002 4.20496 2.79002C4.26496 3.48002 4.33496 4.20002 4.30496 4.92002C4.25496 6.12002 4.02496 7.32002 3.79496 8.47002C3.73496 8.79002 3.66496 9.11002 3.61496 9.43002L3.42496 10.43C2.89496 13.25 2.35496 16.16 2.38496 19.1C2.40496 20.82 2.54496 22.57 2.66496 24.11C2.72496 24.84 2.76496 25.56 2.81496 26.29C2.87496 27.23 2.93496 28.17 3.01496 29.11C3.11496 30.22 3.27496 31.35 3.42496 32.44C3.49496 32.96 3.56496 33.47 3.63496 33.99C3.75496 34.94 3.83496 35.91 3.90496 36.85C3.96496 37.6 4.01496 38.36 4.10496 39.11C4.21496 40.08 4.34496 41.05 4.48496 42.02C4.81496 44.33 5.15496 46.71 5.04496 49.11C4.99496 50.19 4.84496 51.25 4.70496 52.28C4.63496 52.8 4.55496 53.32 4.49496 53.84C4.32496 55.34 4.41496 56.81 4.51496 58.37L4.54496 58.78C4.74496 61.91 4.89496 65.09 5.03496 68.16C5.20496 71.74 5.37496 75.44 5.62496 79.08C5.85496 82.43 6.30496 85.48 7.00496 88.42C7.34496 89.86 7.87496 91.11 8.56496 92.12C8.64496 92.24 8.65496 92.38 8.60496 92.51C8.55496 92.64 8.43496 92.73 8.29496 92.75C7.77496 92.83 7.25496 92.91 6.73496 93.01C6.71496 93.01 6.68496 93.01 6.66496 93.01L6.62496 93ZM2.68496 0.82002C2.68496 1.45002 2.72496 2.07002 2.77496 2.73002C2.82496 3.33002 2.87496 3.95002 2.87496 4.57002C2.87496 5.81002 2.61496 7.05002 2.36496 8.26002C2.28496 8.63002 2.21496 8.99002 2.14496 9.35002L2.07496 9.72002C1.49496 12.84 0.894959 16.06 0.944959 19.31C0.974959 20.98 1.10496 22.68 1.23496 24.33V24.47C1.29496 25.15 1.34496 25.84 1.38496 26.52C1.44496 27.53 1.50496 28.58 1.61496 29.6C1.71496 30.58 1.85496 31.57 1.98496 32.53C2.08496 33.22 2.17496 33.92 2.26496 34.62C2.36496 35.47 2.43496 36.34 2.49496 37.18C2.55496 38.02 2.62496 38.89 2.72496 39.74C2.81496 40.52 2.93496 41.31 3.04496 42.09C3.42496 44.71 3.80496 47.42 3.53496 50.12C3.46496 50.77 3.37496 51.42 3.28496 52.07C3.14496 53.04 3.00496 54.04 2.95496 55.03C2.90496 56.22 2.99496 57.46 3.07496 58.66C3.11496 59.16 3.14496 59.66 3.17496 60.16L3.73496 70.79C3.77496 71.65 3.82496 72.5 3.86496 73.36C3.98496 75.91 4.10496 78.54 4.35496 81.12C4.51496 82.89 4.74496 84.5 5.05496 86.06L5.18496 86.73C5.41496 87.89 5.64496 89.1 6.00496 90.22C6.21496 90.88 6.50496 91.53 6.85496 92.16C7.08496 92.12 7.31496 92.08 7.54496 92.04C6.96496 91.06 6.51496 89.9 6.20496 88.61C5.49496 85.63 5.03496 82.53 4.80496 79.14C4.55496 75.5 4.37496 71.79 4.21496 68.21C4.07496 65.14 3.92496 61.96 3.72496 58.84L3.69496 58.43C3.59496 56.91 3.49496 55.33 3.67496 53.76C3.73496 53.23 3.81496 52.7 3.88496 52.18C4.02496 51.17 4.17496 50.12 4.22496 49.08C4.32496 46.76 3.99496 44.41 3.66496 42.14C3.52496 41.16 3.38496 40.18 3.27496 39.2C3.19496 38.44 3.13496 37.67 3.07496 36.91C3.00496 35.98 2.93496 35.03 2.81496 34.09C2.74496 33.58 2.67496 33.06 2.60496 32.55C2.45496 31.45 2.29496 30.31 2.19496 29.19C2.10496 28.24 2.05496 27.29 1.99496 26.35C1.95496 25.63 1.90496 24.9 1.84496 24.18C1.72496 22.63 1.58496 20.86 1.56496 19.12C1.52496 16.1 2.08496 13.15 2.61496 10.29L2.80496 9.29002C2.86496 8.97002 2.92496 8.65002 2.99496 8.32002C3.21496 7.19002 3.44496 6.03002 3.49496 4.89002C3.52496 4.23002 3.45496 3.53002 3.40496 2.86002C3.34496 2.19002 3.28496 1.51002 3.30496 0.82002H2.70496H2.68496Z" fill="#8A6A4E"/>
</g>
<defs>
<clipPath id="clip0_449_541">
<rect width="118.73" height="97.85" fill="white" transform="translate(0.13501)"/>
</clipPath>
</defs>
</svg>
